<?xml version="1.0" encoding="UTF-8"?>
<svg xmlns="http://www.w3.org/2000/svg" width="1560" height="980" viewBox="0 0 1560 980" role="img" aria-label="GCP target architecture diagram">
  <defs>
    <style>
      .bg{fill:#0a1320}.panel{fill:#12243b;stroke:#55d6ff;stroke-width:2;rx:10}.node{fill:#1e3552;stroke:#93e7ff;stroke-width:1.8;rx:8}.sec{fill:#33244a;stroke:#ff9dd9;stroke-width:1.8;rx:8}.msg{fill:#1f3c2f;stroke:#8cffb2;stroke-width:1.8;rx:8}.obs{fill:#3c2d1a;stroke:#ffce6a;stroke-width:1.8;rx:8}
      .T{font-family:'IBM Plex Sans','Segoe UI',sans-serif;fill:#f3fbff;paint-order:stroke;stroke:#081427;stroke-width:1px}
      .sm{font-size:12px}.ti{font-size:20px;font-weight:700}
      .a{stroke:#63ebff;stroke-width:3;fill:none;marker-end:url(#m1)}.b{stroke:#ff9dd9;stroke-width:3;fill:none;marker-end:url(#m2)}.c{stroke:#a6ffbf;stroke-width:3;fill:none;marker-end:url(#m3)}
    </style>
    <marker id="m1" markerWidth="10" markerHeight="8" refX="9" refY="4" orient="auto"><polygon points="0,0 10,4 0,8" fill="#63ebff"/></marker>
    <marker id="m2" markerWidth="10" markerHeight="8" refX="9" refY="4" orient="auto"><polygon points="0,0 10,4 0,8" fill="#ff9dd9"/></marker>
    <marker id="m3" markerWidth="10" markerHeight="8" refX="9" refY="4" orient="auto"><polygon points="0,0 10,4 0,8" fill="#a6ffbf"/></marker>
  </defs>
  <rect class="bg" x="0" y="0" width="1560" height="980"/>
  <text class="T ti" x="36" y="42">GCP Target Architecture — HxTS Transform Service</text>

  <rect class="panel" x="30" y="65" width="420" height="215" rx="10"/>
  <text class="T" x="50" y="93" font-size="14">Edge and DNS</text>
  <rect class="node" x="50" y="110" width="158" height="40" rx="8"/><text class="T sm" x="68" y="135">Clients / Upstream</text>
  <rect class="node" x="222" y="110" width="208" height="40" rx="8"/><text class="T sm" x="238" y="135">Cloud DNS + HTTPS LB</text>
  <rect class="node" x="50" y="165" width="178" height="40" rx="8"/><text class="T sm" x="80" y="190">Ingress Gateway</text>
  <rect class="sec" x="242" y="165" width="178" height="40" rx="8"/><text class="T sm" x="290" y="190">Cloud Armor</text>
  <rect class="node" x="50" y="218" width="370" height="40" rx="8"/><text class="T sm" x="126" y="243">Private Service Connect + NEG</text>

  <rect class="panel" x="470" y="65" width="680" height="520" rx="10"/>
  <text class="T" x="490" y="93" font-size="14">GKE Cluster Boundary — n2-standard-4 node pool</text>
  <rect class="node" x="495" y="112" width="138" height="40" rx="8"/><text class="T sm" x="520" y="137">REST API</text>
  <rect class="node" x="648" y="112" width="138" height="40" rx="8"/><text class="T sm" x="673" y="137">Router API</text>
  <rect class="node" x="800" y="112" width="138" height="40" rx="8"/><text class="T sm" x="839" y="137">HPA / KEDA</text>
  <rect class="sec" x="954" y="112" width="168" height="40" rx="8"/><text class="T sm" x="970" y="137">Network Policies</text>

  <rect class="panel" x="495" y="170" width="627" height="165" rx="8"/>
  <text class="T sm" x="510" y="196">Service Pods — Engine Group Equivalents</text>
  <rect class="node" x="510" y="208" width="80" height="36" rx="6"/><text class="T sm" x="534" y="231">tika</text>
  <rect class="node" x="598" y="208" width="118" height="36" rx="6"/><text class="T sm" x="613" y="231">imagemagick</text>
  <rect class="node" x="726" y="208" width="102" height="36" rx="6"/><text class="T sm" x="742" y="231">libreoffice</text>
  <rect class="node" x="838" y="208" width="80" height="36" rx="6"/><text class="T sm" x="862" y="231">misc</text>
  <rect class="node" x="928" y="208" width="110" height="36" rx="6"/><text class="T sm" x="948" y="231">docfilters</text>
  <rect class="node" x="510" y="254" width="110" height="36" rx="6"/><text class="T sm" x="530" y="277">docmerge</text>
  <rect class="node" x="630" y="254" width="80" height="36" rx="6"/><text class="T sm" x="654" y="277">aio</text>
  <rect class="sec" x="720" y="254" width="188" height="36" rx="6"/><text class="T sm" x="748" y="277">Secret Manager CSI</text>
  <rect class="sec" x="918" y="254" width="120" height="36" rx="6"/><text class="T sm" x="936" y="277">Binary Authz</text>

  <rect class="node" x="495" y="354" width="188" height="40" rx="8"/><text class="T sm" x="520" y="379">Workload Identity (WIF)</text>
  <rect class="obs" x="698" y="354" width="170" height="40" rx="8"/><text class="T sm" x="754" y="379">Datadog Agent</text>
  <rect class="node" x="882" y="354" width="186" height="40" rx="8"/><text class="T sm" x="914" y="379">Persistent Disk CSI</text>
  <rect class="node" x="495" y="408" width="200" height="40" rx="8"/><text class="T sm" x="535" y="433">CoreDNS / kube-proxy</text>
  <rect class="node" x="706" y="408" width="180" height="40" rx="8"/><text class="T sm" x="728" y="433">Cluster Autoscaler</text>
  <rect class="node" x="900" y="408" width="168" height="40" rx="8"/><text class="T sm" x="928" y="433">cert-manager</text>
  <rect class="node" x="495" y="460" width="570" height="40" rx="8"/><text class="T sm" x="620" y="485">Velero + GCS backup plugin</text>

  <rect class="panel" x="470" y="605" width="680" height="240" rx="10"/>
  <text class="T" x="490" y="633" font-size="14">Messaging, Storage and Security</text>
  <rect class="msg" x="495" y="648" width="188" height="40" rx="8"/><text class="T sm" x="554" y="673">Pub/Sub Topics</text>
  <rect class="msg" x="698" y="648" width="158" height="40" rx="8"/><text class="T sm" x="736" y="673">Pub/Sub DLQ</text>
  <rect class="sec" x="870" y="648" width="130" height="40" rx="8"/><text class="T sm" x="902" y="673">Cloud KMS</text>
  <rect class="sec" x="1014" y="648" width="116" height="40" rx="8"/><text class="T sm" x="1042" y="673">IAM (WIF)</text>
  <rect class="node" x="495" y="702" width="174" height="40" rx="8"/><text class="T sm" x="548" y="727">Filestore Ent.</text>
  <rect class="node" x="684" y="702" width="174" height="40" rx="8"/><text class="T sm" x="722" y="727">GCS Backup (dual-reg)</text>
  <rect class="node" x="873" y="702" width="257" height="40" rx="8"/><text class="T sm" x="906" y="727">PSC + VPC Firewall Rules</text>
  <rect class="obs" x="495" y="756" width="148" height="36" rx="8"/><text class="T sm" x="515" y="779">Cloud Monitoring</text>
  <rect class="node" x="658" y="756" width="148" height="36" rx="8"/><text class="T sm" x="690" y="779">Cloud Logging</text>
  <rect class="sec" x="820" y="756" width="148" height="36" rx="8"/><text class="T sm" x="838" y="779">Security Cmd. Ctr.</text>

  <rect class="panel" x="1168" y="65" width="360" height="770" rx="10"/>
  <text class="T" x="1188" y="93" font-size="14">Operations</text>
  <rect class="obs" x="1188" y="112" width="318" height="44" rx="8"/><text class="T sm" x="1296" y="139">Datadog</text>
  <rect class="obs" x="1188" y="170" width="318" height="44" rx="8"/><text class="T sm" x="1262" y="197">Cloud Monitoring</text>
  <rect class="obs" x="1188" y="228" width="318" height="44" rx="8"/><text class="T sm" x="1274" y="255">Cloud Logging</text>
  <rect class="node" x="1188" y="286" width="318" height="62" rx="8"/><text class="T sm" x="1200" y="313">VPC / Subnets / Firewall</text><text class="T sm" x="1200" y="333">SOC2 / Regional residency</text>
  <rect class="node" x="1188" y="362" width="318" height="44" rx="8"/><text class="T sm" x="1260" y="389">Cloud DNS Zones</text>
  <rect class="sec" x="1188" y="420" width="318" height="44" rx="8"/><text class="T sm" x="1196" y="447" font-size="11">Not found in IaC: Cloud Armor Adv.</text>
  <rect class="node" x="1188" y="478" width="318" height="44" rx="8"/><text class="T sm" x="1228" y="505">Cross-region GCS backup</text>

  <path class="a" d="M208 130 L222 130"/>
  <path class="a" d="M139 150 L139 165"/>
  <path class="a" d="M228 185 L495 132"/>
  <path class="b" d="M420 185 L242 185"/>
  <path class="a" d="M633 132 L648 132"/>
  <path class="a" d="M786 132 L800 132"/>
  <path class="c" d="M717 152 L720 208"/>
  <path class="c" d="M563 152 L563 208"/>
  <path class="b" d="M826 290 L870 648"/>
  <path class="c" d="M563 290 L560 648"/>
  <path class="a" d="M1148 730 L1188 314"/>
  <path class="a" d="M968 776 L1188 252"/>
</svg>
