<?xml version="1.0" encoding="UTF-8"?><svg xmlns="http://www.w3.org/2000/svg" viewBox="0 0 820 520" width="820" height="520"><rect width="820" height="520" fill="#0f1929"/><text x="410" y="42" text-anchor="middle" font-size="15" fill="#90CAF9" font-weight="bold">One-Time Migration Cost vs 30-Day Run-Rate (USD)</text><rect x="90" y="70" width="690" height="330" fill="#0a1526" rx="4"/><line x1="90" y1="400" x2="780" y2="400" stroke="#1E3A5F" stroke-width="1"/><text x="84" y="404" text-anchor="end" font-size="10" fill="#78909C">$0.000</text><line x1="90" y1="334" x2="780" y2="334" stroke="#1E3A5F" stroke-width="1"/><text x="84" y="338" text-anchor="end" font-size="10" fill="#78909C">$66.1k</text><line x1="90" y1="268" x2="780" y2="268" stroke="#1E3A5F" stroke-width="1"/><text x="84" y="272" text-anchor="end" font-size="10" fill="#78909C">$132.2k</text><line x1="90" y1="202" x2="780" y2="202" stroke="#1E3A5F" stroke-width="1"/><text x="84" y="206" text-anchor="end" font-size="10" fill="#78909C">$198.2k</text><line x1="90" y1="136" x2="780" y2="136" stroke="#1E3A5F" stroke-width="1"/><text x="84" y="140" text-anchor="end" font-size="10" fill="#78909C">$264.3k</text><line x1="90" y1="70" x2="780" y2="70" stroke="#1E3A5F" stroke-width="1"/><text x="84" y="74" text-anchor="end" font-size="10" fill="#78909C">$330.4k</text><text x="12" y="235" text-anchor="middle" font-size="10" fill="#78909C" transform="rotate(-90 12 235)">USD</text><rect x="140.2" y="400.0" width="48.0" height="0.0" fill="#FF9900" rx="3" opacity="0.9"/><rect x="213.4" y="120.3" width="48.0" height="279.7" fill="#0078D4" rx="3" opacity="0.9"/><text x="237.4" y="117.3" text-anchor="middle" font-size="9" fill="#0078D4">$280.0k</text><rect x="286.5" y="137.3" width="48.0" height="262.7" fill="#34A853" rx="3" opacity="0.9"/><text x="310.5" y="134.3" text-anchor="middle" font-size="9" fill="#34A853">$263.0k</text><text x="262" y="415" text-anchor="middle" font-size="10" fill="#B0BEC5">One-time migration</text><rect x="485.2" y="381.1" width="48.0" height="18.9" fill="#FF9900" rx="3" opacity="0.9"/><text x="509.2" y="378.1" text-anchor="middle" font-size="9" fill="#FF9900">$18.9k</text><rect x="558.4" y="379.9" width="48.0" height="20.1" fill="#0078D4" rx="3" opacity="0.9"/><text x="582.4" y="376.9" text-anchor="middle" font-size="9" fill="#0078D4">$20.1k</text><rect x="631.5" y="381.6" width="48.0" height="18.4" fill="#34A853" rx="3" opacity="0.9"/><text x="655.5" y="378.6" text-anchor="middle" font-size="9" fill="#34A853">$18.4k</text><text x="608" y="415" text-anchor="middle" font-size="10" fill="#B0BEC5">30-day run-rate</text><rect x="90" y="491" width="13" height="11" fill="#FF9900" rx="2"/><text x="107" y="500" font-size="11" fill="#90A4AE">AWS</text><rect x="250" y="491" width="13" height="11" fill="#0078D4" rx="2"/><text x="267" y="500" font-size="11" fill="#90A4AE">Azure</text><rect x="410" y="491" width="13" height="11" fill="#34A853" rx="2"/><text x="427" y="500" font-size="11" fill="#90A4AE">GCP</text><line x1="90" y1="70" x2="90" y2="400" stroke="#455A64" stroke-width="1.5"/><line x1="90" y1="400" x2="780" y2="400" stroke="#455A64" stroke-width="1.5"/></svg>