<?xml version="1.0" encoding="UTF-8"?><svg xmlns="http://www.w3.org/2000/svg" viewBox="0 0 1560 1100" width="1560" height="1100"><title>HXTS AWS Source Architecture</title><defs>
<style>text{font-family:'Segoe UI',Arial,sans-serif;}</style>
<marker id="aB" viewBox="0 0 8 8" refX="7" refY="4" markerWidth="5" markerHeight="5" orient="auto-start-reverse"><path d="M0,0 L8,4 L0,8 Z" fill="#64B5F6"/></marker>
<marker id="aO" viewBox="0 0 8 8" refX="7" refY="4" markerWidth="5" markerHeight="5" orient="auto-start-reverse"><path d="M0,0 L8,4 L0,8 Z" fill="#FF9800"/></marker>
<marker id="aP" viewBox="0 0 8 8" refX="7" refY="4" markerWidth="5" markerHeight="5" orient="auto-start-reverse"><path d="M0,0 L8,4 L0,8 Z" fill="#CE93D8"/></marker>
<marker id="aG" viewBox="0 0 8 8" refX="7" refY="4" markerWidth="5" markerHeight="5" orient="auto-start-reverse"><path d="M0,0 L8,4 L0,8 Z" fill="#66BB6A"/></marker>
</defs><rect width="1560" height="1100" fill="#0f1929"/><rect x="18" y="10" width="1524" height="46" fill="#16304a" rx="6"/><text x="780" y="42" text-anchor="middle" font-size="15" fill="#90CAF9" font-weight="bold">HXTS — AWS Source Architecture (terraform-aws-hxts-environment · tf-cfg-hxts-infrastructure)</text><rect x="18" y="66" width="320" height="82" rx="10" fill="rgba(0,0,0,0)" stroke="#78909C" stroke-width="1.5" stroke-dasharray="10 5"/><text x="28" y="82" font-size="11" fill="#78909C" font-weight="bold">External / Internet</text><rect x="36" y="80" width="110" height="54" rx="8" fill="#1a2a3a" stroke="#78909C" stroke-width="1.5"/><text x="91" y="101" text-anchor="middle" font-size="12" fill="#F0F4F8" font-weight="normal">Clients</text><text x="91" y="117" text-anchor="middle" font-size="9" fill="#90A4AE">Web / API consumers</text><rect x="168" y="80" width="110" height="54" rx="8" fill="#1a2a3a" stroke="#78909C" stroke-width="1.5"/><text x="223" y="101" text-anchor="middle" font-size="12" fill="#F0F4F8" font-weight="normal">Route 53</text><text x="223" y="117" text-anchor="middle" font-size="9" fill="#90A4AE">DNS + ACM certs</text><rect x="18" y="158" width="740" height="84" rx="10" fill="rgba(30,15,0,0.3)" stroke="#FF9900" stroke-width="1.5" stroke-dasharray="10 5"/><text x="28" y="174" font-size="11" fill="#FF9900" font-weight="bold">AWS Edge</text><rect x="36" y="172" width="180" height="56" rx="8" fill="#1e1000" stroke="#FF9900" stroke-width="1.5"/><text x="126" y="194" text-anchor="middle" font-size="12" fill="#F0F4F8" font-weight="normal">ALB</text><text x="126" y="210" text-anchor="middle" font-size="9" fill="#90A4AE">ingress-nginx backend</text><rect x="234" y="172" width="170" height="56" rx="8" fill="#1e1000" stroke="#FF9900" stroke-width="1.5"/><text x="319" y="194" text-anchor="middle" font-size="12" fill="#F0F4F8" font-weight="normal">WAFv2</text><text x="319" y="210" text-anchor="middle" font-size="9" fill="#90A4AE">ACL + CloudWatch logs</text><rect x="422" y="172" width="160" height="56" rx="8" fill="#1e1000" stroke="#FF9900" stroke-width="1.5"/><text x="502" y="194" text-anchor="middle" font-size="12" fill="#F0F4F8" font-weight="normal">NLB</text><text x="502" y="210" text-anchor="middle" font-size="9" fill="#90A4AE">PrivateLink target</text><rect x="600" y="172" width="140" height="56" rx="8" fill="#1e1000" stroke="#FF9900" stroke-width="1.5"/><text x="670" y="194" text-anchor="middle" font-size="12" fill="#F0F4F8" font-weight="normal">VPC Endpoint Svc</text><text x="670" y="210" text-anchor="middle" font-size="9" fill="#90A4AE">PrivateLink consumer</text><rect x="18" y="252" width="1160" height="822" rx="10" fill="rgba(10,30,80,0.15)" stroke="#1565C0" stroke-width="1.5" stroke-dasharray="10 5"/><text x="28" y="268" font-size="11" fill="#1565C0" font-weight="bold">VPC / Private Subnets (us-east-1)</text><rect x="36" y="272" width="1120" height="786" rx="10" fill="rgba(0,50,0,0.12)" stroke="#388E3C" stroke-width="1.5" stroke-dasharray="10 5"/><text x="46" y="288" font-size="11" fill="#388E3C" font-weight="bold">EKS Cluster  ·  K8s 1.33  ·  terraform-aws-modules/eks v21.15.1  ·  Bottlerocket 1.54.0</text><rect x="56" y="296" width="190" height="46" rx="8" fill="#0a2a1a" stroke="#43A047" stroke-width="1.5"/><text x="151" y="313" text-anchor="middle" font-size="11" fill="#F0F4F8" font-weight="normal">ingress-nginx</text><text x="151" y="329" text-anchor="middle" font-size="9" fill="#90A4AE">Helm v4.15.0</text><rect x="258" y="296" width="190" height="46" rx="8" fill="#0a2a1a" stroke="#43A047" stroke-width="1.5"/><text x="353" y="313" text-anchor="middle" font-size="11" fill="#F0F4F8" font-weight="normal">cert-manager</text><text x="353" y="329" text-anchor="middle" font-size="9" fill="#90A4AE">v1.20.0</text><rect x="460" y="296" width="190" height="46" rx="8" fill="#0a2a1a" stroke="#43A047" stroke-width="1.5"/><text x="555" y="313" text-anchor="middle" font-size="11" fill="#F0F4F8" font-weight="normal">AWS LB Controller</text><text x="555" y="329" text-anchor="middle" font-size="9" fill="#90A4AE">Helm v3.1.0</text><rect x="662" y="296" width="180" height="46" rx="8" fill="#0a2a1a" stroke="#43A047" stroke-width="1.5"/><text x="752" y="313" text-anchor="middle" font-size="11" fill="#F0F4F8" font-weight="normal">Karpenter</text><text x="752" y="329" text-anchor="middle" font-size="9" fill="#90A4AE">v1.10.0 node provisioner</text><rect x="854" y="296" width="170" height="46" rx="8" fill="#0a2a1a" stroke="#43A047" stroke-width="1.5"/><text x="939" y="313" text-anchor="middle" font-size="11" fill="#F0F4F8" font-weight="normal">metrics-server</text><text x="939" y="329" text-anchor="middle" font-size="9" fill="#90A4AE">v3.13.0</text><rect x="1036" y="296" width="100" height="46" rx="8" fill="#1a0a00" stroke="#FF8A65" stroke-width="1.5"/><text x="1086" y="313" text-anchor="middle" font-size="11" fill="#F0F4F8" font-weight="normal">Datadog</text><text x="1086" y="329" text-anchor="middle" font-size="9" fill="#90A4AE">helm 3.146.1</text><rect x="56" y="354" width="910" height="684" rx="10" fill="rgba(10,30,100,0.2)" stroke="#1E88E5" stroke-width="1.5" stroke-dasharray="10 5"/><text x="66" y="370" font-size="11" fill="#1E88E5" font-weight="bold">HXTS Namespace  ·  K8s NetworkPolicy  ·  K8s Secrets  ·  IRSA / Workload Identity</text><rect x="76" y="382" width="170" height="58" rx="8" fill="#0a1e44" stroke="#1E88E5" stroke-width="1.5"/><text x="161" y="405" text-anchor="middle" font-size="13" fill="#F0F4F8" font-weight="bold">REST</text><text x="161" y="421" text-anchor="middle" font-size="9" fill="#90A4AE">API gateway pod</text><rect x="268" y="382" width="170" height="58" rx="8" fill="#0a1e44" stroke="#1E88E5" stroke-width="1.5"/><text x="353" y="405" text-anchor="middle" font-size="13" fill="#F0F4F8" font-weight="bold">Router</text><text x="353" y="421" text-anchor="middle" font-size="9" fill="#90A4AE">job routing pod</text><rect x="740" y="382" width="160" height="58" rx="8" fill="#1a0a2a" stroke="#CE93D8" stroke-width="1.5"/><text x="820" y="405" text-anchor="middle" font-size="12" fill="#F0F4F8" font-weight="normal">KEDA</text><text x="820" y="421" text-anchor="middle" font-size="9" fill="#90A4AE">v2.17.2 · SQS scaler</text><rect x="740" y="452" width="160" height="58" rx="8" fill="#1a0a2a" stroke="#CE93D8" stroke-width="1.5"/><text x="820" y="475" text-anchor="middle" font-size="12" fill="#F0F4F8" font-weight="normal">K8s Secrets</text><text x="820" y="491" text-anchor="middle" font-size="9" fill="#90A4AE">IRSA + registry pull</text><rect x="740" y="522" width="160" height="58" rx="8" fill="#0a2a1a" stroke="#43A047" stroke-width="1.5"/><text x="820" y="545" text-anchor="middle" font-size="12" fill="#F0F4F8" font-weight="normal">NetworkPolicy</text><text x="820" y="561" text-anchor="middle" font-size="9" fill="#90A4AE">egress allowlist</text><rect x="76" y="456" width="612" height="292" rx="10" fill="rgba(5,20,55,0.3)" stroke="#42A5F5" stroke-width="1.5" stroke-dasharray="10 5"/><text x="86" y="472" font-size="11" fill="#42A5F5" font-weight="bold">Engine Group  ·  KEDA-scaled transform workers</text><rect x="86" y="480" width="118" height="58" rx="8" fill="#08183a" stroke="#42A5F5" stroke-width="1.5"/><text x="145" y="503" text-anchor="middle" font-size="11" fill="#F0F4F8" font-weight="normal">tika</text><text x="145" y="519" text-anchor="middle" font-size="9" fill="#90A4AE">transform engine</text><rect x="222" y="480" width="118" height="58" rx="8" fill="#08183a" stroke="#42A5F5" stroke-width="1.5"/><text x="281" y="503" text-anchor="middle" font-size="11" fill="#F0F4F8" font-weight="normal">imagemagick</text><text x="281" y="519" text-anchor="middle" font-size="9" fill="#90A4AE">transform engine</text><rect x="358" y="480" width="118" height="58" rx="8" fill="#08183a" stroke="#42A5F5" stroke-width="1.5"/><text x="417" y="503" text-anchor="middle" font-size="11" fill="#F0F4F8" font-weight="normal">libreoffice</text><text x="417" y="519" text-anchor="middle" font-size="9" fill="#90A4AE">transform engine</text><rect x="494" y="480" width="118" height="58" rx="8" fill="#08183a" stroke="#42A5F5" stroke-width="1.5"/><text x="553" y="503" text-anchor="middle" font-size="11" fill="#F0F4F8" font-weight="normal">misc</text><text x="553" y="519" text-anchor="middle" font-size="9" fill="#90A4AE">transform engine</text><rect x="86" y="582" width="118" height="58" rx="8" fill="#08183a" stroke="#42A5F5" stroke-width="1.5"/><text x="145" y="605" text-anchor="middle" font-size="11" fill="#F0F4F8" font-weight="normal">docfilters</text><text x="145" y="621" text-anchor="middle" font-size="9" fill="#90A4AE">transform engine</text><rect x="222" y="582" width="118" height="58" rx="8" fill="#08183a" stroke="#42A5F5" stroke-width="1.5"/><text x="281" y="605" text-anchor="middle" font-size="11" fill="#F0F4F8" font-weight="normal">docmerge</text><text x="281" y="621" text-anchor="middle" font-size="9" fill="#90A4AE">transform engine</text><rect x="358" y="582" width="118" height="58" rx="8" fill="#08183a" stroke="#42A5F5" stroke-width="1.5"/><text x="417" y="605" text-anchor="middle" font-size="11" fill="#F0F4F8" font-weight="normal">aio</text><text x="417" y="621" text-anchor="middle" font-size="9" fill="#90A4AE">transform engine</text><rect x="960" y="860" width="190" height="52" rx="8" fill="#0a2a1a" stroke="#66BB6A" stroke-width="1.5"/><text x="1055" y="880" text-anchor="middle" font-size="12" fill="#F0F4F8" font-weight="normal">Velero</text><text x="1055" y="896" text-anchor="middle" font-size="9" fill="#90A4AE">Helm v11.4.0</text><rect x="760" y="860" width="180" height="52" rx="8" fill="#1e1000" stroke="#FF9900" stroke-width="1.5"/><text x="850" y="880" text-anchor="middle" font-size="12" fill="#F0F4F8" font-weight="normal">EFS</text><text x="850" y="896" text-anchor="middle" font-size="9" fill="#90A4AE">EFS CSI v3.4.1 · nfs-client</text><rect x="1192" y="66" width="330" height="1010" rx="10" fill="rgba(30,15,0,0.2)" stroke="#FF9900" stroke-width="1.5" stroke-dasharray="10 5"/><text x="1202" y="82" font-size="11" fill="#FF9900" font-weight="bold">AWS Managed Services</text><rect x="1210" y="84" width="294" height="80" rx="8" fill="#1e1000" stroke="#FF9900" stroke-width="1.5"/><text x="1357" y="118" text-anchor="middle" font-size="12" fill="#F0F4F8" font-weight="normal">SQS Queues</text><text x="1357" y="134" text-anchor="middle" font-size="9" fill="#90A4AE">18 queues · KMS enc · long-poll 10s</text><rect x="1210" y="192" width="294" height="80" rx="8" fill="#1e1000" stroke="#FF9900" stroke-width="1.5"/><text x="1357" y="226" text-anchor="middle" font-size="12" fill="#F0F4F8" font-weight="normal">SNS Topics</text><text x="1357" y="242" text-anchor="middle" font-size="9" fill="#90A4AE">transform-request + reply topics</text><rect x="1210" y="298" width="294" height="80" rx="8" fill="#1e1000" stroke="#FF9900" stroke-width="1.5"/><text x="1357" y="332" text-anchor="middle" font-size="12" fill="#F0F4F8" font-weight="normal">KMS CMK</text><text x="1357" y="348" text-anchor="middle" font-size="9" fill="#90A4AE">symmetric · auto-rotate · hxts-transform-* alias</text><rect x="1210" y="404" width="294" height="80" rx="8" fill="#1e1000" stroke="#FF9900" stroke-width="1.5"/><text x="1357" y="438" text-anchor="middle" font-size="12" fill="#F0F4F8" font-weight="normal">Secrets Manager</text><text x="1357" y="454" text-anchor="middle" font-size="9" fill="#90A4AE">hxts_client_secret + consumer secret</text><rect x="1210" y="510" width="294" height="80" rx="8" fill="#1e1000" stroke="#FF9900" stroke-width="1.5"/><text x="1357" y="544" text-anchor="middle" font-size="12" fill="#F0F4F8" font-weight="normal">EFS File System</text><text x="1357" y="560" text-anchor="middle" font-size="9" fill="#90A4AE">EFS CSI v3.4.1 · nfs-client SC</text><rect x="1210" y="616" width="294" height="80" rx="8" fill="#1e1000" stroke="#FF9900" stroke-width="1.5"/><text x="1357" y="650" text-anchor="middle" font-size="12" fill="#F0F4F8" font-weight="normal">CloudWatch Logs</text><text x="1357" y="666" text-anchor="middle" font-size="9" fill="#90A4AE">WAF + EKS control plane · 7/14d retention</text><rect x="1210" y="722" width="294" height="80" rx="8" fill="#1e1000" stroke="#FF9900" stroke-width="1.5"/><text x="1357" y="756" text-anchor="middle" font-size="12" fill="#F0F4F8" font-weight="normal">S3 / Velero</text><text x="1357" y="772" text-anchor="middle" font-size="9" fill="#90A4AE">backup · cross-region us-west-2</text><rect x="1210" y="828" width="294" height="80" rx="8" fill="#1e1000" stroke="#FF9900" stroke-width="1.5"/><text x="1357" y="862" text-anchor="middle" font-size="12" fill="#F0F4F8" font-weight="normal">SSM Parameters</text><text x="1357" y="878" text-anchor="middle" font-size="9" fill="#90A4AE">worker IAM role ARN + name</text><rect x="1210" y="930" width="294" height="80" rx="8" fill="#1e1000" stroke="#FF9900" stroke-width="1.5"/><text x="1357" y="964" text-anchor="middle" font-size="12" fill="#F0F4F8" font-weight="normal">VPC PrivateLink</text><text x="1357" y="980" text-anchor="middle" font-size="9" fill="#90A4AE">VPC Endpoint Service</text><line x1="150" y1="107" x2="168" y2="80" stroke="#64B5F6" stroke-width="1.5" marker-end="url(#aB)"/><line x1="280" y1="107" x2="400" y2="172" stroke="#64B5F6" stroke-width="1.5" marker-end="url(#aB)"/><text x="340" y="134" text-anchor="middle" font-size="9" fill="#90A4AE">DNS resolve</text><line x1="128" y1="228" x2="128" y2="296" stroke="#64B5F6" stroke-width="1.5" marker-end="url(#aB)"/><text x="128" y="256" text-anchor="middle" font-size="9" fill="#90A4AE">HTTPS 443</text><line x1="540" y1="296" x2="540" y2="382" stroke="#64B5F6" stroke-width="1.5" marker-end="url(#aB)"/><text x="540" y="333" text-anchor="middle" font-size="9" fill="#90A4AE">TLS terminate</text><line x1="246" y1="411" x2="268" y2="411" stroke="#64B5F6" stroke-width="1.5" marker-end="url(#aB)"/><line x1="870" y1="411" x2="1192" y2="132" stroke="#FF9800" stroke-width="1.5" marker-end="url(#aO)"/><text x="1031" y="266" text-anchor="middle" font-size="9" fill="#90A4AE">enqueue request</text><line x1="1192" y1="232" x2="870" y2="411" stroke="#64B5F6" stroke-width="1.5" marker-end="url(#aB)"/><text x="1031" y="316" text-anchor="middle" font-size="9" fill="#90A4AE">long-poll</text><line x1="438" y1="411" x2="460" y2="460" stroke="#64B5F6" stroke-width="1.5" marker-end="url(#aB)"/><text x="449" y="430" text-anchor="middle" font-size="9" fill="#90A4AE">route to engine queue</text><line x1="690" y1="560" x2="1192" y2="340" stroke="#FF9800" stroke-width="1.5" marker-end="url(#aO)"/><text x="941" y="444" text-anchor="middle" font-size="9" fill="#90A4AE">engine reply</text><line x1="900" y1="411" x2="740" y2="411" stroke="#FF9800" stroke-width="1.5" stroke-dasharray="6 4" marker-end="url(#aO)"/><text x="820" y="405" text-anchor="middle" font-size="9" fill="#90A4AE">SQS depth → scale</text><line x1="900" y1="481" x2="740" y2="481" stroke="#CE93D8" stroke-width="1.5" stroke-dasharray="6 4" marker-end="url(#aP)"/><text x="820" y="475" text-anchor="middle" font-size="9" fill="#90A4AE">mount secret</text><line x1="900" y1="556" x2="740" y2="556" stroke="#43A047" stroke-width="1.5" stroke-dasharray="6 4" marker-end="url(#aB)"/><text x="820" y="550" text-anchor="middle" font-size="9" fill="#90A4AE">enforce policy</text><line x1="856" y1="884" x2="1192" y2="556" stroke="#64B5F6" stroke-width="1.5" stroke-dasharray="6 4" marker-end="url(#aB)"/><text x="1024" y="714" text-anchor="middle" font-size="9" fill="#90A4AE">mount NFS</text><line x1="1055" y1="886" x2="1192" y2="760" stroke="#66BB6A" stroke-width="1.5" stroke-dasharray="6 4" marker-end="url(#aG)"/><text x="1124" y="817" text-anchor="middle" font-size="9" fill="#90A4AE">backup</text><line x1="1192" y1="460" x2="1136" y2="481" stroke="#CE93D8" stroke-width="1.5" stroke-dasharray="6 4" marker-end="url(#aP)"/></svg>