<?xml version="1.0" encoding="UTF-8"?><svg xmlns="http://www.w3.org/2000/svg" viewBox="0 0 1300 570" width="1300" height="570"><rect width="1300" height="570" fill="#0f1929"/><text x="650" y="42" text-anchor="middle" font-size="15" fill="#90CAF9" font-weight="bold">30-Day Cost by Capability (USD) — AWS US vs Azure US vs GCP US</text><rect x="90" y="70" width="1170" height="380" fill="#0a1526" rx="4"/><line x1="90" y1="450" x2="1260" y2="450" stroke="#1E3A5F" stroke-width="1"/><text x="84" y="454" text-anchor="end" font-size="10" fill="#78909C">$0.000</text><line x1="90" y1="374" x2="1260" y2="374" stroke="#1E3A5F" stroke-width="1"/><text x="84" y="378" text-anchor="end" font-size="10" fill="#78909C">$2.2k</text><line x1="90" y1="298" x2="1260" y2="298" stroke="#1E3A5F" stroke-width="1"/><text x="84" y="302" text-anchor="end" font-size="10" fill="#78909C">$4.4k</text><line x1="90" y1="222" x2="1260" y2="222" stroke="#1E3A5F" stroke-width="1"/><text x="84" y="226" text-anchor="end" font-size="10" fill="#78909C">$6.6k</text><line x1="90" y1="146" x2="1260" y2="146" stroke="#1E3A5F" stroke-width="1"/><text x="84" y="150" text-anchor="end" font-size="10" fill="#78909C">$8.9k</text><line x1="90" y1="70" x2="1260" y2="70" stroke="#1E3A5F" stroke-width="1"/><text x="84" y="74" text-anchor="end" font-size="10" fill="#78909C">$11.1k</text><text x="12" y="260" text-anchor="middle" font-size="10" fill="#78909C" transform="rotate(-90 12 260)">USD</text><rect x="100.4" y="142.7" width="41.8" height="307.3" fill="#FF9900" rx="3" opacity="0.9"/><text x="121.3" y="139.7" text-anchor="middle" font-size="9" fill="#FF9900">$8.9k</text><rect x="147.5" y="128.0" width="41.8" height="322.0" fill="#0078D4" rx="3" opacity="0.9"/><text x="168.3" y="125.0" text-anchor="middle" font-size="9" fill="#0078D4">$9.4k</text><rect x="194.5" y="148.6" width="41.8" height="301.4" fill="#34A853" rx="3" opacity="0.9"/><text x="215.4" y="145.6" text-anchor="middle" font-size="9" fill="#34A853">$8.8k</text><text x="174" y="465" text-anchor="middle" font-size="10" fill="#B0BEC5">Compute</text><rect x="267.6" y="373.1" width="41.8" height="76.9" fill="#FF9900" rx="3" opacity="0.9"/><text x="288.5" y="370.1" text-anchor="middle" font-size="9" fill="#FF9900">$2.2k</text><rect x="314.6" y="364.9" width="41.8" height="85.1" fill="#0078D4" rx="3" opacity="0.9"/><text x="335.5" y="361.9" text-anchor="middle" font-size="9" fill="#0078D4">$2.5k</text><rect x="361.6" y="374.8" width="41.8" height="75.2" fill="#34A853" rx="3" opacity="0.9"/><text x="382.5" y="371.8" text-anchor="middle" font-size="9" fill="#34A853">$2.2k</text><text x="341" y="465" text-anchor="middle" font-size="10" fill="#B0BEC5">Networking</text><rect x="434.7" y="354.6" width="41.8" height="95.4" fill="#FF9900" rx="3" opacity="0.9"/><text x="455.6" y="351.6" text-anchor="middle" font-size="9" fill="#FF9900">$2.8k</text><rect x="481.7" y="349.4" width="41.8" height="100.6" fill="#0078D4" rx="3" opacity="0.9"/><text x="502.6" y="346.4" text-anchor="middle" font-size="9" fill="#0078D4">$2.9k</text><rect x="528.8" y="359.4" width="41.8" height="90.6" fill="#34A853" rx="3" opacity="0.9"/><text x="549.6" y="356.4" text-anchor="middle" font-size="9" fill="#34A853">$2.6k</text><text x="508" y="465" text-anchor="middle" font-size="10" fill="#B0BEC5">Data</text><rect x="601.9" y="410.9" width="41.8" height="39.1" fill="#FF9900" rx="3" opacity="0.9"/><text x="622.8" y="407.9" text-anchor="middle" font-size="9" fill="#FF9900">$1.1k</text><rect x="648.9" y="406.7" width="41.8" height="43.3" fill="#0078D4" rx="3" opacity="0.9"/><text x="669.8" y="403.7" text-anchor="middle" font-size="9" fill="#0078D4">$1.3k</text><rect x="695.9" y="413.6" width="41.8" height="36.4" fill="#34A853" rx="3" opacity="0.9"/><text x="716.8" y="410.6" text-anchor="middle" font-size="9" fill="#34A853">$1.1k</text><text x="675" y="465" text-anchor="middle" font-size="10" fill="#B0BEC5">Messaging</text><rect x="769.0" y="426.3" width="41.8" height="23.7" fill="#FF9900" rx="3" opacity="0.9"/><text x="789.9" y="423.3" text-anchor="middle" font-size="9" fill="#FF9900">$690</text><rect x="816.0" y="423.9" width="41.8" height="26.1" fill="#0078D4" rx="3" opacity="0.9"/><text x="836.9" y="420.9" text-anchor="middle" font-size="9" fill="#0078D4">$760</text><rect x="863.0" y="425.6" width="41.8" height="24.4" fill="#34A853" rx="3" opacity="0.9"/><text x="883.9" y="422.6" text-anchor="middle" font-size="9" fill="#34A853">$710</text><text x="842" y="465" text-anchor="middle" font-size="10" fill="#B0BEC5">Identity/Sec</text><rect x="936.2" y="380.3" width="41.8" height="69.7" fill="#FF9900" rx="3" opacity="0.9"/><text x="957.1" y="377.3" text-anchor="middle" font-size="9" fill="#FF9900">$2.0k</text><rect x="983.2" y="377.6" width="41.8" height="72.4" fill="#0078D4" rx="3" opacity="0.9"/><text x="1004.1" y="374.6" text-anchor="middle" font-size="9" fill="#0078D4">$2.1k</text><rect x="1030.2" y="381.3" width="41.8" height="68.7" fill="#34A853" rx="3" opacity="0.9"/><text x="1051.1" y="378.3" text-anchor="middle" font-size="9" fill="#34A853">$2.0k</text><text x="1009" y="465" text-anchor="middle" font-size="10" fill="#B0BEC5">Observability</text><rect x="1103.3" y="412.6" width="41.8" height="37.4" fill="#FF9900" rx="3" opacity="0.9"/><text x="1124.2" y="409.6" text-anchor="middle" font-size="9" fill="#FF9900">$1.1k</text><rect x="1150.3" y="410.2" width="41.8" height="39.8" fill="#0078D4" rx="3" opacity="0.9"/><text x="1171.2" y="407.2" text-anchor="middle" font-size="9" fill="#0078D4">$1.2k</text><rect x="1197.3" y="414.0" width="41.8" height="36.0" fill="#34A853" rx="3" opacity="0.9"/><text x="1218.2" y="411.0" text-anchor="middle" font-size="9" fill="#34A853">$1.1k</text><text x="1176" y="465" text-anchor="middle" font-size="10" fill="#B0BEC5">Storage/Backup</text><rect x="90" y="541" width="13" height="11" fill="#FF9900" rx="2"/><text x="107" y="550" font-size="11" fill="#90A4AE">AWS US</text><rect x="250" y="541" width="13" height="11" fill="#0078D4" rx="2"/><text x="267" y="550" font-size="11" fill="#90A4AE">Azure US</text><rect x="410" y="541" width="13" height="11" fill="#34A853" rx="2"/><text x="427" y="550" font-size="11" fill="#90A4AE">GCP US</text><line x1="90" y1="70" x2="90" y2="450" stroke="#455A64" stroke-width="1.5"/><line x1="90" y1="450" x2="1260" y2="450" stroke="#455A64" stroke-width="1.5"/></svg>