<?xml version="1.0" encoding="UTF-8"?><svg xmlns="http://www.w3.org/2000/svg" viewBox="0 0 1560 970" width="1560" height="970"><title>HXTS GCP Target Architecture</title><defs>
<style>text{font-family:'Segoe UI',Arial,sans-serif;}</style>
<marker id="aB" viewBox="0 0 8 8" refX="7" refY="4" markerWidth="5" markerHeight="5" orient="auto-start-reverse"><path d="M0,0 L8,4 L0,8 Z" fill="#64B5F6"/></marker>
<marker id="aO" viewBox="0 0 8 8" refX="7" refY="4" markerWidth="5" markerHeight="5" orient="auto-start-reverse"><path d="M0,0 L8,4 L0,8 Z" fill="#FF9800"/></marker>
<marker id="aP" viewBox="0 0 8 8" refX="7" refY="4" markerWidth="5" markerHeight="5" orient="auto-start-reverse"><path d="M0,0 L8,4 L0,8 Z" fill="#CE93D8"/></marker>
<marker id="aG" viewBox="0 0 8 8" refX="7" refY="4" markerWidth="5" markerHeight="5" orient="auto-start-reverse"><path d="M0,0 L8,4 L0,8 Z" fill="#66BB6A"/></marker>
</defs><rect width="1560" height="970" fill="#0f1929"/><rect x="18" y="10" width="1524" height="46" fill="#16304a" rx="6"/><text x="780" y="42" text-anchor="middle" font-size="15" fill="#90CAF9" font-weight="bold">HXTS — GCP Target Architecture (GKE Standard)</text><rect x="18" y="66" width="300" height="74" rx="10" fill="rgba(0,0,0,0)" stroke="#78909C" stroke-width="1.5" stroke-dasharray="10 5"/><text x="28" y="82" font-size="11" fill="#78909C" font-weight="bold">External / Internet</text><rect x="36" y="80" width="110" height="50" rx="8" fill="#1a2a3a" stroke="#78909C" stroke-width="1.5"/><text x="91" y="99" text-anchor="middle" font-size="12" fill="#F0F4F8" font-weight="normal">Clients</text><text x="91" y="115" text-anchor="middle" font-size="9" fill="#90A4AE">Web / API consumers</text><rect x="166" y="80" width="120" height="50" rx="8" fill="#1a2a3a" stroke="#78909C" stroke-width="1.5"/><text x="226" y="99" text-anchor="middle" font-size="12" fill="#F0F4F8" font-weight="normal">Cloud DNS</text><text x="226" y="115" text-anchor="middle" font-size="9" fill="#90A4AE">Managed zones</text><rect x="18" y="150" width="780" height="82" rx="10" fill="rgba(0,30,10,0.25)" stroke="#34A853" stroke-width="1.5" stroke-dasharray="10 5"/><text x="28" y="166" font-size="11" fill="#34A853" font-weight="bold">GCP Edge</text><rect x="36" y="164" width="220" height="56" rx="8" fill="#001a06" stroke="#34A853" stroke-width="1.5"/><text x="146" y="186" text-anchor="middle" font-size="11" fill="#F0F4F8" font-weight="normal">Cloud LB (HTTPS Global)</text><text x="146" y="202" text-anchor="middle" font-size="9" fill="#90A4AE">SSL + anycast routing</text><rect x="274" y="164" width="170" height="56" rx="8" fill="#001a06" stroke="#34A853" stroke-width="1.5"/><text x="359" y="186" text-anchor="middle" font-size="11" fill="#F0F4F8" font-weight="normal">Cloud Armor WAF</text><text x="359" y="202" text-anchor="middle" font-size="9" fill="#90A4AE">OWASP + DDoS managed</text><rect x="462" y="164" width="170" height="56" rx="8" fill="#001a06" stroke="#34A853" stroke-width="1.5"/><text x="547" y="186" text-anchor="middle" font-size="11" fill="#F0F4F8" font-weight="normal">Private Service Connect</text><text x="547" y="202" text-anchor="middle" font-size="9" fill="#90A4AE">NLB + PrivateLink equiv.</text><rect x="650" y="164" width="128" height="56" rx="8" fill="#001a06" stroke="#34A853" stroke-width="1.5"/><text x="714" y="186" text-anchor="middle" font-size="11" fill="#F0F4F8" font-weight="normal">Cloud CDN</text><text x="714" y="202" text-anchor="middle" font-size="9" fill="#90A4AE">optional edge cache</text><rect x="18" y="242" width="1160" height="710" rx="10" fill="rgba(0,20,5,0.18)" stroke="#1B5E20" stroke-width="1.5" stroke-dasharray="10 5"/><text x="28" y="258" font-size="11" fill="#1B5E20" font-weight="bold">GCP VPC / Private Subnets</text><rect x="36" y="262" width="1120" height="682" rx="10" fill="rgba(0,40,0,0.12)" stroke="#43A047" stroke-width="1.5" stroke-dasharray="10 5"/><text x="46" y="278" font-size="11" fill="#43A047" font-weight="bold">GKE Standard Cluster  ·  Kubernetes 1.33  ·  E2/N2 Node Pools  ·  KEDA v2.17.2</text><rect x="56" y="286" width="190" height="46" rx="8" fill="#0a2a1a" stroke="#43A047" stroke-width="1.5"/><text x="151" y="303" text-anchor="middle" font-size="11" fill="#F0F4F8" font-weight="normal">ingress-nginx</text><text x="151" y="319" text-anchor="middle" font-size="9" fill="#90A4AE">or GKE Ingress</text><rect x="258" y="286" width="190" height="46" rx="8" fill="#0a2a1a" stroke="#43A047" stroke-width="1.5"/><text x="353" y="303" text-anchor="middle" font-size="11" fill="#F0F4F8" font-weight="normal">cert-manager</text><text x="353" y="319" text-anchor="middle" font-size="9" fill="#90A4AE">Google CA Service</text><rect x="460" y="286" width="200" height="46" rx="8" fill="#0a2a1a" stroke="#43A047" stroke-width="1.5"/><text x="560" y="303" text-anchor="middle" font-size="11" fill="#F0F4F8" font-weight="normal">Node Auto-provisioner</text><text x="560" y="319" text-anchor="middle" font-size="9" fill="#90A4AE">replaces Karpenter</text><rect x="672" y="286" width="190" height="46" rx="8" fill="#0a2a1a" stroke="#43A047" stroke-width="1.5"/><text x="767" y="303" text-anchor="middle" font-size="11" fill="#F0F4F8" font-weight="normal">Workload Identity</text><text x="767" y="319" text-anchor="middle" font-size="9" fill="#90A4AE">replaces IRSA</text><rect x="876" y="286" width="180" height="46" rx="8" fill="#1a0800" stroke="#FF8A65" stroke-width="1.5"/><text x="966" y="303" text-anchor="middle" font-size="11" fill="#F0F4F8" font-weight="normal">Datadog Agent</text><text x="966" y="319" text-anchor="middle" font-size="9" fill="#90A4AE">same Helm chart</text><rect x="56" y="346" width="900" height="578" rx="10" fill="rgba(0,30,0,0.18)" stroke="#1E88E5" stroke-width="1.5" stroke-dasharray="10 5"/><text x="66" y="362" font-size="11" fill="#1E88E5" font-weight="bold">HXTS Namespace  ·  K8s NetworkPolicy  ·  Workload Identity SA</text><rect x="76" y="374" width="170" height="56" rx="8" fill="#0a1e44" stroke="#1E88E5" stroke-width="1.5"/><text x="161" y="396" text-anchor="middle" font-size="13" fill="#F0F4F8" font-weight="bold">REST</text><text x="161" y="412" text-anchor="middle" font-size="9" fill="#90A4AE">unchanged app image</text><rect x="268" y="374" width="170" height="56" rx="8" fill="#0a1e44" stroke="#1E88E5" stroke-width="1.5"/><text x="353" y="396" text-anchor="middle" font-size="13" fill="#F0F4F8" font-weight="bold">Router</text><text x="353" y="412" text-anchor="middle" font-size="9" fill="#90A4AE">unchanged app image</text><rect x="740" y="374" width="160" height="56" rx="8" fill="#1a0a2a" stroke="#CE93D8" stroke-width="1.5"/><text x="820" y="396" text-anchor="middle" font-size="12" fill="#F0F4F8" font-weight="normal">KEDA</text><text x="820" y="412" text-anchor="middle" font-size="9" fill="#90A4AE">Pub/Sub scaler</text><rect x="740" y="444" width="160" height="56" rx="8" fill="#1a0a2a" stroke="#CE93D8" stroke-width="1.5"/><text x="820" y="466" text-anchor="middle" font-size="12" fill="#F0F4F8" font-weight="normal">K8s Secrets</text><text x="820" y="482" text-anchor="middle" font-size="9" fill="#90A4AE">CSI + Secret Manager</text><rect x="76" y="444" width="612" height="280" rx="10" fill="rgba(5,20,55,0.3)" stroke="#42A5F5" stroke-width="1.5" stroke-dasharray="10 5"/><text x="86" y="460" font-size="11" fill="#42A5F5" font-weight="bold">Engine Group  ·  unchanged containers  ·  Pub/Sub subscription config</text><rect x="86" y="468" width="118" height="56" rx="8" fill="#08183a" stroke="#42A5F5" stroke-width="1.5"/><text x="145" y="490" text-anchor="middle" font-size="11" fill="#F0F4F8" font-weight="normal">tika</text><text x="145" y="506" text-anchor="middle" font-size="9" fill="#90A4AE">Pub/Sub subscription</text><rect x="222" y="468" width="118" height="56" rx="8" fill="#08183a" stroke="#42A5F5" stroke-width="1.5"/><text x="281" y="490" text-anchor="middle" font-size="11" fill="#F0F4F8" font-weight="normal">imagemagick</text><text x="281" y="506" text-anchor="middle" font-size="9" fill="#90A4AE">Pub/Sub subscription</text><rect x="358" y="468" width="118" height="56" rx="8" fill="#08183a" stroke="#42A5F5" stroke-width="1.5"/><text x="417" y="490" text-anchor="middle" font-size="11" fill="#F0F4F8" font-weight="normal">libreoffice</text><text x="417" y="506" text-anchor="middle" font-size="9" fill="#90A4AE">Pub/Sub subscription</text><rect x="494" y="468" width="118" height="56" rx="8" fill="#08183a" stroke="#42A5F5" stroke-width="1.5"/><text x="553" y="490" text-anchor="middle" font-size="11" fill="#F0F4F8" font-weight="normal">misc</text><text x="553" y="506" text-anchor="middle" font-size="9" fill="#90A4AE">Pub/Sub subscription</text><rect x="86" y="568" width="118" height="56" rx="8" fill="#08183a" stroke="#42A5F5" stroke-width="1.5"/><text x="145" y="590" text-anchor="middle" font-size="11" fill="#F0F4F8" font-weight="normal">docfilters</text><text x="145" y="606" text-anchor="middle" font-size="9" fill="#90A4AE">Pub/Sub subscription</text><rect x="222" y="568" width="118" height="56" rx="8" fill="#08183a" stroke="#42A5F5" stroke-width="1.5"/><text x="281" y="590" text-anchor="middle" font-size="11" fill="#F0F4F8" font-weight="normal">docmerge</text><text x="281" y="606" text-anchor="middle" font-size="9" fill="#90A4AE">Pub/Sub subscription</text><rect x="358" y="568" width="118" height="56" rx="8" fill="#08183a" stroke="#42A5F5" stroke-width="1.5"/><text x="417" y="590" text-anchor="middle" font-size="11" fill="#F0F4F8" font-weight="normal">aio</text><text x="417" y="606" text-anchor="middle" font-size="9" fill="#90A4AE">Pub/Sub subscription</text><rect x="960" y="840" width="210" height="54" rx="8" fill="#0a1a06" stroke="#66BB6A" stroke-width="1.5"/><text x="1065" y="861" text-anchor="middle" font-size="12" fill="#F0F4F8" font-weight="normal">Velero + Backup &amp; DR</text><text x="1065" y="877" text-anchor="middle" font-size="9" fill="#90A4AE">GCS cross-region pair</text><rect x="1192" y="66" width="330" height="910" rx="10" fill="rgba(0,20,5,0.25)" stroke="#34A853" stroke-width="1.5" stroke-dasharray="10 5"/><text x="1202" y="82" font-size="11" fill="#34A853" font-weight="bold">GCP Managed Services</text><rect x="1210" y="84" width="294" height="76" rx="8" fill="#001a06" stroke="#34A853" stroke-width="1.5"/><text x="1357" y="116" text-anchor="middle" font-size="12" fill="#F0F4F8" font-weight="normal">Cloud Pub/Sub</text><text x="1357" y="132" text-anchor="middle" font-size="9" fill="#90A4AE">Pull subscriptions · DLQ · replaces SQS</text><rect x="1210" y="184" width="294" height="76" rx="8" fill="#001a06" stroke="#34A853" stroke-width="1.5"/><text x="1357" y="216" text-anchor="middle" font-size="12" fill="#F0F4F8" font-weight="normal">Pub/Sub Topics</text><text x="1357" y="232" text-anchor="middle" font-size="9" fill="#90A4AE">Fan-out subscriptions · replaces SNS</text><rect x="1210" y="284" width="294" height="76" rx="8" fill="#001a06" stroke="#34A853" stroke-width="1.5"/><text x="1357" y="316" text-anchor="middle" font-size="12" fill="#F0F4F8" font-weight="normal">Cloud KMS</text><text x="1357" y="332" text-anchor="middle" font-size="9" fill="#90A4AE">CMEK sym keys · rotation · replaces AWS KMS</text><rect x="1210" y="384" width="294" height="76" rx="8" fill="#001a06" stroke="#34A853" stroke-width="1.5"/><text x="1357" y="416" text-anchor="middle" font-size="12" fill="#F0F4F8" font-weight="normal">Secret Manager</text><text x="1357" y="432" text-anchor="middle" font-size="9" fill="#90A4AE">IAM-gated versions · replaces Secrets Mgr</text><rect x="1210" y="484" width="294" height="76" rx="8" fill="#001a06" stroke="#34A853" stroke-width="1.5"/><text x="1357" y="516" text-anchor="middle" font-size="12" fill="#F0F4F8" font-weight="normal">Filestore Enterprise</text><text x="1357" y="532" text-anchor="middle" font-size="9" fill="#90A4AE">RWX NFS · zonal SLA · replaces EFS</text><rect x="1210" y="584" width="294" height="76" rx="8" fill="#001a06" stroke="#34A853" stroke-width="1.5"/><text x="1357" y="616" text-anchor="middle" font-size="12" fill="#F0F4F8" font-weight="normal">Cloud Monitoring</text><text x="1357" y="632" text-anchor="middle" font-size="9" fill="#90A4AE">Metrics + Alerting · replaces CloudWatch</text><rect x="1210" y="684" width="294" height="76" rx="8" fill="#001a06" stroke="#34A853" stroke-width="1.5"/><text x="1357" y="716" text-anchor="middle" font-size="12" fill="#F0F4F8" font-weight="normal">Cloud Storage</text><text x="1357" y="732" text-anchor="middle" font-size="9" fill="#90A4AE">Standard · lifecycle · replaces S3 Velero</text><rect x="1210" y="784" width="294" height="76" rx="8" fill="#001a06" stroke="#34A853" stroke-width="1.5"/><text x="1357" y="816" text-anchor="middle" font-size="12" fill="#F0F4F8" font-weight="normal">GCP Workload Identity</text><text x="1357" y="832" text-anchor="middle" font-size="9" fill="#90A4AE">SA Federation · replaces IAM IRSA</text><rect x="1210" y="884" width="294" height="76" rx="8" fill="#001a06" stroke="#34A853" stroke-width="1.5"/><text x="1357" y="916" text-anchor="middle" font-size="12" fill="#F0F4F8" font-weight="normal">Org Policy / VPC SC</text><text x="1357" y="932" text-anchor="middle" font-size="9" fill="#90A4AE">Residency + compliance guardrails</text><line x1="150" y1="105" x2="150" y2="164" stroke="#64B5F6" stroke-width="1.5" marker-end="url(#aB)"/><text x="150" y="128" text-anchor="middle" font-size="9" fill="#90A4AE">HTTPS</text><line x1="246" y1="192" x2="140" y2="286" stroke="#64B5F6" stroke-width="1.5" marker-end="url(#aB)"/><text x="193" y="233" text-anchor="middle" font-size="9" fill="#90A4AE">443 route</text><line x1="860" y1="402" x2="1192" y2="122" stroke="#FF9800" stroke-width="1.5" marker-end="url(#aO)"/><text x="1026" y="256" text-anchor="middle" font-size="9" fill="#90A4AE">publish</text><line x1="1192" y1="222" x2="860" y2="402" stroke="#64B5F6" stroke-width="1.5" marker-end="url(#aB)"/><text x="1026" y="306" text-anchor="middle" font-size="9" fill="#90A4AE">pull</text><line x1="900" y1="402" x2="740" y2="402" stroke="#FF9800" stroke-width="1.5" stroke-dasharray="6 4" marker-end="url(#aO)"/><text x="820" y="396" text-anchor="middle" font-size="9" fill="#90A4AE">queue depth</text><line x1="900" y1="472" x2="740" y2="472" stroke="#CE93D8" stroke-width="1.5" stroke-dasharray="6 4" marker-end="url(#aP)"/><text x="820" y="466" text-anchor="middle" font-size="9" fill="#90A4AE">mount secret</text><line x1="1070" y1="867" x2="1192" y2="722" stroke="#66BB6A" stroke-width="1.5" stroke-dasharray="6 4" marker-end="url(#aG)"/><text x="1131" y="788" text-anchor="middle" font-size="9" fill="#90A4AE">backup</text></svg>