<?xml version="1.0" encoding="UTF-8"?><svg xmlns="http://www.w3.org/2000/svg" viewBox="0 0 900 520" width="900" height="520"><rect width="900" height="520" fill="#0f1929"/><text x="450" y="42" text-anchor="middle" font-size="15" fill="#90CAF9" font-weight="bold">Regional 30-Day Run-Rate Total (USD) — AWS vs Azure vs GCP</text><rect x="90" y="70" width="770" height="330" fill="#0a1526" rx="4"/><line x1="90" y1="400" x2="860" y2="400" stroke="#1E3A5F" stroke-width="1"/><text x="84" y="404" text-anchor="end" font-size="10" fill="#78909C">$0.000</text><line x1="90" y1="334" x2="860" y2="334" stroke="#1E3A5F" stroke-width="1"/><text x="84" y="338" text-anchor="end" font-size="10" fill="#78909C">$5.5k</text><line x1="90" y1="268" x2="860" y2="268" stroke="#1E3A5F" stroke-width="1"/><text x="84" y="272" text-anchor="end" font-size="10" fill="#78909C">$10.9k</text><line x1="90" y1="202" x2="860" y2="202" stroke="#1E3A5F" stroke-width="1"/><text x="84" y="206" text-anchor="end" font-size="10" fill="#78909C">$16.4k</text><line x1="90" y1="136" x2="860" y2="136" stroke="#1E3A5F" stroke-width="1"/><text x="84" y="140" text-anchor="end" font-size="10" fill="#78909C">$21.8k</text><line x1="90" y1="70" x2="860" y2="70" stroke="#1E3A5F" stroke-width="1"/><text x="84" y="74" text-anchor="end" font-size="10" fill="#78909C">$27.3k</text><text x="12" y="235" text-anchor="middle" font-size="10" fill="#78909C" transform="rotate(-90 12 235)">USD</text><rect x="118.2" y="171.0" width="48.0" height="229.0" fill="#FF9900" rx="3" opacity="0.9"/><text x="142.2" y="168.0" text-anchor="middle" font-size="9" fill="#FF9900">$18.9k</text><rect x="180.2" y="157.0" width="48.0" height="243.0" fill="#0078D4" rx="3" opacity="0.9"/><text x="204.2" y="154.0" text-anchor="middle" font-size="9" fill="#0078D4">$20.1k</text><rect x="242.3" y="177.0" width="48.0" height="223.0" fill="#34A853" rx="3" opacity="0.9"/><text x="266.3" y="174.0" text-anchor="middle" font-size="9" fill="#34A853">$18.4k</text><text x="218" y="415" text-anchor="middle" font-size="10" fill="#B0BEC5">US East</text><rect x="374.8" y="157.4" width="48.0" height="242.6" fill="#FF9900" rx="3" opacity="0.9"/><text x="398.8" y="154.4" text-anchor="middle" font-size="9" fill="#FF9900">$20.1k</text><rect x="436.9" y="141.4" width="48.0" height="258.6" fill="#0078D4" rx="3" opacity="0.9"/><text x="460.9" y="138.4" text-anchor="middle" font-size="9" fill="#0078D4">$21.4k</text><rect x="499.0" y="164.0" width="48.0" height="236.0" fill="#34A853" rx="3" opacity="0.9"/><text x="523.0" y="161.0" text-anchor="middle" font-size="9" fill="#34A853">$19.5k</text><text x="475" y="415" text-anchor="middle" font-size="10" fill="#B0BEC5">EU West</text><rect x="631.5" y="138.0" width="48.0" height="262.0" fill="#FF9900" rx="3" opacity="0.9"/><text x="655.5" y="135.0" text-anchor="middle" font-size="9" fill="#FF9900">$21.6k</text><rect x="693.6" y="120.3" width="48.0" height="279.7" fill="#0078D4" rx="3" opacity="0.9"/><text x="717.6" y="117.3" text-anchor="middle" font-size="9" fill="#0078D4">$23.1k</text><rect x="755.7" y="144.7" width="48.0" height="255.3" fill="#34A853" rx="3" opacity="0.9"/><text x="779.7" y="141.7" text-anchor="middle" font-size="9" fill="#34A853">$21.1k</text><text x="732" y="415" text-anchor="middle" font-size="10" fill="#B0BEC5">AU East</text><rect x="90" y="491" width="13" height="11" fill="#FF9900" rx="2"/><text x="107" y="500" font-size="11" fill="#90A4AE">AWS</text><rect x="250" y="491" width="13" height="11" fill="#0078D4" rx="2"/><text x="267" y="500" font-size="11" fill="#90A4AE">Azure</text><rect x="410" y="491" width="13" height="11" fill="#34A853" rx="2"/><text x="427" y="500" font-size="11" fill="#90A4AE">GCP</text><line x1="90" y1="70" x2="90" y2="400" stroke="#455A64" stroke-width="1.5"/><line x1="90" y1="400" x2="860" y2="400" stroke="#455A64" stroke-width="1.5"/></svg>