<?xml version="1.0" encoding="UTF-8"?><svg xmlns="http://www.w3.org/2000/svg" viewBox="0 0 900 740" width="900" height="740"><rect width="900" height="740" fill="#0f1929"/><text x="450" y="38" text-anchor="middle" font-size="17" fill="#90CAF9" font-weight="bold">Migration Effort vs Risk Matrix</text><rect x="100" y="68" width="380" height="295" fill="#0d1f0d" stroke="#1E3A5F" stroke-width="1"/><rect x="480" y="68" width="380" height="295" fill="#1f0d0d" stroke="#1E3A5F" stroke-width="1"/><rect x="100" y="363" width="380" height="295" fill="#0d1a1f" stroke="#1E3A5F" stroke-width="1"/><rect x="480" y="363" width="380" height="295" fill="#1d1f0d" stroke="#1E3A5F" stroke-width="1"/><text x="290" y="215" text-anchor="middle" font-size="10" fill="#37474F">SMALL EFFORT · HIGH RISK</text><text x="670" y="215" text-anchor="middle" font-size="10" fill="#37474F">LARGE EFFORT · HIGH RISK</text><text x="290" y="510" text-anchor="middle" font-size="10" fill="#37474F">SMALL EFFORT · LOW RISK</text><text x="670" y="510" text-anchor="middle" font-size="10" fill="#37474F">LARGE EFFORT · LOW-MED RISK</text><line x1="100" y1="68" x2="100" y2="658" stroke="#455A64" stroke-width="2"/><line x1="100" y1="658" x2="860" y2="658" stroke="#455A64" stroke-width="2"/><line x1="480" y1="68" x2="480" y2="658" stroke="#455A64" stroke-width="1" stroke-dasharray="5 4"/><line x1="100" y1="363" x2="860" y2="363" stroke="#455A64" stroke-width="1" stroke-dasharray="5 4"/><text x="480" y="686" text-anchor="middle" font-size="13" fill="#90CAF9" font-weight="bold">→ Migration Effort (S→L)</text><text x="72" y="363" text-anchor="middle" font-size="13" fill="#90CAF9" font-weight="bold" transform="rotate(-90 72 363)">↑ Risk Level (L→H)</text><circle cx="222" cy="139" r="36" fill="#FF9800" opacity="0.82" stroke="#fff" stroke-width="1.2"/><text x="222" y="98" text-anchor="middle" font-size="10" fill="#FF9800" font-weight="bold">Compute / K8s</text><circle cx="237" cy="186" r="32" fill="#EF5350" opacity="0.82" stroke="#fff" stroke-width="1.2"/><text x="237" y="149" text-anchor="middle" font-size="10" fill="#EF5350" font-weight="bold">Data / Storage</text><circle cx="252" cy="233" r="30" fill="#AB47BC" opacity="0.82" stroke="#fff" stroke-width="1.2"/><text x="252" y="198" text-anchor="middle" font-size="10" fill="#AB47BC" font-weight="bold">Identity / Security</text><circle cx="480" cy="162" r="30" fill="#F44336" opacity="0.82" stroke="#fff" stroke-width="1.2"/><text x="480" y="127" text-anchor="middle" font-size="10" fill="#F44336" font-weight="bold">Governance</text><circle cx="495" cy="351" r="28" fill="#42A5F5" opacity="0.82" stroke="#fff" stroke-width="1.2"/><text x="495" y="318" text-anchor="middle" font-size="10" fill="#42A5F5" font-weight="bold">Networking / Edge</text><circle cx="510" cy="398" r="26" fill="#26C6DA" opacity="0.82" stroke="#fff" stroke-width="1.2"/><text x="510" y="367" text-anchor="middle" font-size="10" fill="#26C6DA" font-weight="bold">Messaging</text><circle cx="495" cy="446" r="26" fill="#66BB6A" opacity="0.82" stroke="#fff" stroke-width="1.2"/><text x="495" y="415" text-anchor="middle" font-size="10" fill="#66BB6A" font-weight="bold">Observability</text><text x="120" y="706" font-size="10" fill="#546E7A">SMALL</text><text x="810" y="706" font-size="10" fill="#546E7A">LARGE</text><text x="30" y="648" font-size="10" fill="#546E7A">LOW</text><text x="30" y="80" font-size="10" fill="#546E7A">HIGH</text></svg>