<?xml version="1.0" encoding="UTF-8"?><svg xmlns="http://www.w3.org/2000/svg" viewBox="0 0 1560 970" width="1560" height="970"><title>HXTS Azure Target Architecture</title><defs>
<style>text{font-family:'Segoe UI',Arial,sans-serif;}</style>
<marker id="aB" viewBox="0 0 8 8" refX="7" refY="4" markerWidth="5" markerHeight="5" orient="auto-start-reverse"><path d="M0,0 L8,4 L0,8 Z" fill="#64B5F6"/></marker>
<marker id="aO" viewBox="0 0 8 8" refX="7" refY="4" markerWidth="5" markerHeight="5" orient="auto-start-reverse"><path d="M0,0 L8,4 L0,8 Z" fill="#FF9800"/></marker>
<marker id="aP" viewBox="0 0 8 8" refX="7" refY="4" markerWidth="5" markerHeight="5" orient="auto-start-reverse"><path d="M0,0 L8,4 L0,8 Z" fill="#CE93D8"/></marker>
<marker id="aG" viewBox="0 0 8 8" refX="7" refY="4" markerWidth="5" markerHeight="5" orient="auto-start-reverse"><path d="M0,0 L8,4 L0,8 Z" fill="#66BB6A"/></marker>
</defs><rect width="1560" height="970" fill="#0f1929"/><rect x="18" y="10" width="1524" height="46" fill="#16304a" rx="6"/><text x="780" y="42" text-anchor="middle" font-size="15" fill="#90CAF9" font-weight="bold">HXTS — Azure Target Architecture (AKS)</text><rect x="18" y="66" width="300" height="74" rx="10" fill="rgba(0,0,0,0)" stroke="#78909C" stroke-width="1.5" stroke-dasharray="10 5"/><text x="28" y="82" font-size="11" fill="#78909C" font-weight="bold">External / Internet</text><rect x="36" y="80" width="110" height="50" rx="8" fill="#1a2a3a" stroke="#78909C" stroke-width="1.5"/><text x="91" y="99" text-anchor="middle" font-size="12" fill="#F0F4F8" font-weight="normal">Clients</text><text x="91" y="115" text-anchor="middle" font-size="9" fill="#90A4AE">Web / API consumers</text><rect x="166" y="80" width="120" height="50" rx="8" fill="#1a2a3a" stroke="#78909C" stroke-width="1.5"/><text x="226" y="99" text-anchor="middle" font-size="12" fill="#F0F4F8" font-weight="normal">Azure DNS</text><text x="226" y="115" text-anchor="middle" font-size="9" fill="#90A4AE">Custom domains</text><rect x="18" y="150" width="760" height="82" rx="10" fill="rgba(0,20,60,0.25)" stroke="#0078D4" stroke-width="1.5" stroke-dasharray="10 5"/><text x="28" y="166" font-size="11" fill="#0078D4" font-weight="bold">Azure Edge</text><rect x="36" y="164" width="210" height="56" rx="8" fill="#001030" stroke="#0078D4" stroke-width="1.5"/><text x="141" y="186" text-anchor="middle" font-size="11" fill="#F0F4F8" font-weight="normal">App Gateway WAF v2</text><text x="141" y="202" text-anchor="middle" font-size="9" fill="#90A4AE">SSL termination + OWASP</text><rect x="264" y="164" width="170" height="56" rx="8" fill="#001030" stroke="#0078D4" stroke-width="1.5"/><text x="349" y="186" text-anchor="middle" font-size="11" fill="#F0F4F8" font-weight="normal">Azure Load Balancer</text><text x="349" y="202" text-anchor="middle" font-size="9" fill="#90A4AE">L4 NLB equivalent</text><rect x="452" y="164" width="150" height="56" rx="8" fill="#001030" stroke="#0078D4" stroke-width="1.5"/><text x="527" y="186" text-anchor="middle" font-size="11" fill="#F0F4F8" font-weight="normal">Private Endpoint</text><text x="527" y="202" text-anchor="middle" font-size="9" fill="#90A4AE">VNET integration</text><rect x="620" y="164" width="138" height="56" rx="8" fill="#001030" stroke="#0078D4" stroke-width="1.5"/><text x="689" y="186" text-anchor="middle" font-size="11" fill="#F0F4F8" font-weight="normal">Azure Firewall</text><text x="689" y="202" text-anchor="middle" font-size="9" fill="#90A4AE">DDoS + IDPS</text><rect x="18" y="242" width="1160" height="710" rx="10" fill="rgba(0,15,60,0.18)" stroke="#1565C0" stroke-width="1.5" stroke-dasharray="10 5"/><text x="28" y="258" font-size="11" fill="#1565C0" font-weight="bold">Azure Virtual Network / Private Subnets</text><rect x="36" y="262" width="1120" height="682" rx="10" fill="rgba(0,40,0,0.1)" stroke="#388E3C" stroke-width="1.5" stroke-dasharray="10 5"/><text x="46" y="278" font-size="11" fill="#388E3C" font-weight="bold">AKS Cluster  ·  Kubernetes 1.33  ·  VMSS Node Pools  ·  KEDA v2.17.2</text><rect x="56" y="286" width="190" height="46" rx="8" fill="#0a2a1a" stroke="#43A047" stroke-width="1.5"/><text x="151" y="303" text-anchor="middle" font-size="11" fill="#F0F4F8" font-weight="normal">ingress-nginx</text><text x="151" y="319" text-anchor="middle" font-size="9" fill="#90A4AE">Helm chart</text><rect x="258" y="286" width="190" height="46" rx="8" fill="#0a2a1a" stroke="#43A047" stroke-width="1.5"/><text x="353" y="303" text-anchor="middle" font-size="11" fill="#F0F4F8" font-weight="normal">cert-manager</text><text x="353" y="319" text-anchor="middle" font-size="9" fill="#90A4AE">ACM → Let&#x27;s Encrypt</text><rect x="460" y="286" width="190" height="46" rx="8" fill="#0a2a1a" stroke="#43A047" stroke-width="1.5"/><text x="555" y="303" text-anchor="middle" font-size="11" fill="#F0F4F8" font-weight="normal">Cluster Autoscaler</text><text x="555" y="319" text-anchor="middle" font-size="9" fill="#90A4AE">replaces Karpenter</text><rect x="662" y="286" width="200" height="46" rx="8" fill="#0a2a1a" stroke="#43A047" stroke-width="1.5"/><text x="762" y="303" text-anchor="middle" font-size="11" fill="#F0F4F8" font-weight="normal">Azure Workload Identity</text><text x="762" y="319" text-anchor="middle" font-size="9" fill="#90A4AE">replaces IRSA</text><rect x="876" y="286" width="180" height="46" rx="8" fill="#1a0800" stroke="#FF8A65" stroke-width="1.5"/><text x="966" y="303" text-anchor="middle" font-size="11" fill="#F0F4F8" font-weight="normal">Datadog Agent</text><text x="966" y="319" text-anchor="middle" font-size="9" fill="#90A4AE">same Helm chart</text><rect x="56" y="346" width="900" height="578" rx="10" fill="rgba(0,20,80,0.18)" stroke="#1E88E5" stroke-width="1.5" stroke-dasharray="10 5"/><text x="66" y="362" font-size="11" fill="#1E88E5" font-weight="bold">HXTS Namespace  ·  K8s NetworkPolicy  ·  Workload Identity SA</text><rect x="76" y="374" width="170" height="56" rx="8" fill="#0a1e44" stroke="#1E88E5" stroke-width="1.5"/><text x="161" y="396" text-anchor="middle" font-size="13" fill="#F0F4F8" font-weight="bold">REST</text><text x="161" y="412" text-anchor="middle" font-size="9" fill="#90A4AE">unchanged app image</text><rect x="268" y="374" width="170" height="56" rx="8" fill="#0a1e44" stroke="#1E88E5" stroke-width="1.5"/><text x="353" y="396" text-anchor="middle" font-size="13" fill="#F0F4F8" font-weight="bold">Router</text><text x="353" y="412" text-anchor="middle" font-size="9" fill="#90A4AE">unchanged app image</text><rect x="740" y="374" width="160" height="56" rx="8" fill="#1a0a2a" stroke="#CE93D8" stroke-width="1.5"/><text x="820" y="396" text-anchor="middle" font-size="12" fill="#F0F4F8" font-weight="normal">KEDA</text><text x="820" y="412" text-anchor="middle" font-size="9" fill="#90A4AE">Service Bus scaler</text><rect x="740" y="444" width="160" height="56" rx="8" fill="#1a0a2a" stroke="#CE93D8" stroke-width="1.5"/><text x="820" y="466" text-anchor="middle" font-size="12" fill="#F0F4F8" font-weight="normal">K8s Secrets</text><text x="820" y="482" text-anchor="middle" font-size="9" fill="#90A4AE">CSI Secret Store Driver</text><rect x="76" y="444" width="612" height="280" rx="10" fill="rgba(5,20,55,0.3)" stroke="#42A5F5" stroke-width="1.5" stroke-dasharray="10 5"/><text x="86" y="460" font-size="11" fill="#42A5F5" font-weight="bold">Engine Group  ·  unchanged containers  ·  queue config remapped</text><rect x="86" y="468" width="118" height="56" rx="8" fill="#08183a" stroke="#42A5F5" stroke-width="1.5"/><text x="145" y="490" text-anchor="middle" font-size="11" fill="#F0F4F8" font-weight="normal">tika</text><text x="145" y="506" text-anchor="middle" font-size="9" fill="#90A4AE">queue config remapped</text><rect x="222" y="468" width="118" height="56" rx="8" fill="#08183a" stroke="#42A5F5" stroke-width="1.5"/><text x="281" y="490" text-anchor="middle" font-size="11" fill="#F0F4F8" font-weight="normal">imagemagick</text><text x="281" y="506" text-anchor="middle" font-size="9" fill="#90A4AE">queue config remapped</text><rect x="358" y="468" width="118" height="56" rx="8" fill="#08183a" stroke="#42A5F5" stroke-width="1.5"/><text x="417" y="490" text-anchor="middle" font-size="11" fill="#F0F4F8" font-weight="normal">libreoffice</text><text x="417" y="506" text-anchor="middle" font-size="9" fill="#90A4AE">queue config remapped</text><rect x="494" y="468" width="118" height="56" rx="8" fill="#08183a" stroke="#42A5F5" stroke-width="1.5"/><text x="553" y="490" text-anchor="middle" font-size="11" fill="#F0F4F8" font-weight="normal">misc</text><text x="553" y="506" text-anchor="middle" font-size="9" fill="#90A4AE">queue config remapped</text><rect x="86" y="568" width="118" height="56" rx="8" fill="#08183a" stroke="#42A5F5" stroke-width="1.5"/><text x="145" y="590" text-anchor="middle" font-size="11" fill="#F0F4F8" font-weight="normal">docfilters</text><text x="145" y="606" text-anchor="middle" font-size="9" fill="#90A4AE">queue config remapped</text><rect x="222" y="568" width="118" height="56" rx="8" fill="#08183a" stroke="#42A5F5" stroke-width="1.5"/><text x="281" y="590" text-anchor="middle" font-size="11" fill="#F0F4F8" font-weight="normal">docmerge</text><text x="281" y="606" text-anchor="middle" font-size="9" fill="#90A4AE">queue config remapped</text><rect x="358" y="568" width="118" height="56" rx="8" fill="#08183a" stroke="#42A5F5" stroke-width="1.5"/><text x="417" y="590" text-anchor="middle" font-size="11" fill="#F0F4F8" font-weight="normal">aio</text><text x="417" y="606" text-anchor="middle" font-size="9" fill="#90A4AE">queue config remapped</text><rect x="960" y="840" width="200" height="54" rx="8" fill="#0a2a1a" stroke="#66BB6A" stroke-width="1.5"/><text x="1060" y="861" text-anchor="middle" font-size="12" fill="#F0F4F8" font-weight="normal">Velero + Azure Backup</text><text x="1060" y="877" text-anchor="middle" font-size="9" fill="#90A4AE">Blob Vault · cross-region</text><rect x="1192" y="66" width="330" height="910" rx="10" fill="rgba(0,15,55,0.25)" stroke="#0078D4" stroke-width="1.5" stroke-dasharray="10 5"/><text x="1202" y="82" font-size="11" fill="#0078D4" font-weight="bold">Azure Managed Services</text><rect x="1210" y="84" width="294" height="76" rx="8" fill="#001030" stroke="#0078D4" stroke-width="1.5"/><text x="1357" y="116" text-anchor="middle" font-size="12" fill="#F0F4F8" font-weight="normal">Service Bus Queues</text><text x="1357" y="132" text-anchor="middle" font-size="9" fill="#90A4AE">Standard · 18 queues · replaces SQS</text><rect x="1210" y="184" width="294" height="76" rx="8" fill="#001030" stroke="#0078D4" stroke-width="1.5"/><text x="1357" y="216" text-anchor="middle" font-size="12" fill="#F0F4F8" font-weight="normal">Service Bus Topics</text><text x="1357" y="232" text-anchor="middle" font-size="9" fill="#90A4AE">Topics + Subscriptions · replaces SNS</text><rect x="1210" y="284" width="294" height="76" rx="8" fill="#001030" stroke="#0078D4" stroke-width="1.5"/><text x="1357" y="316" text-anchor="middle" font-size="12" fill="#F0F4F8" font-weight="normal">Azure Key Vault (Keys)</text><text x="1357" y="332" text-anchor="middle" font-size="9" fill="#90A4AE">HSM-backed · rotation · replaces KMS</text><rect x="1210" y="384" width="294" height="76" rx="8" fill="#001030" stroke="#0078D4" stroke-width="1.5"/><text x="1357" y="416" text-anchor="middle" font-size="12" fill="#F0F4F8" font-weight="normal">Azure Key Vault (Secrets)</text><text x="1357" y="432" text-anchor="middle" font-size="9" fill="#90A4AE">Managed identity access · replaces Secrets Mgr</text><rect x="1210" y="484" width="294" height="76" rx="8" fill="#001030" stroke="#0078D4" stroke-width="1.5"/><text x="1357" y="516" text-anchor="middle" font-size="12" fill="#F0F4F8" font-weight="normal">Azure Files Premium</text><text x="1357" y="532" text-anchor="middle" font-size="9" fill="#90A4AE">RWX NFS 4.1 · replaces EFS</text><rect x="1210" y="584" width="294" height="76" rx="8" fill="#001030" stroke="#0078D4" stroke-width="1.5"/><text x="1357" y="616" text-anchor="middle" font-size="12" fill="#F0F4F8" font-weight="normal">Azure Monitor</text><text x="1357" y="632" text-anchor="middle" font-size="9" fill="#90A4AE">Log Analytics + Alerts · replaces CloudWatch</text><rect x="1210" y="684" width="294" height="76" rx="8" fill="#001030" stroke="#0078D4" stroke-width="1.5"/><text x="1357" y="716" text-anchor="middle" font-size="12" fill="#F0F4F8" font-weight="normal">Blob Storage</text><text x="1357" y="732" text-anchor="middle" font-size="9" fill="#90A4AE">Hot/Cool + lifecycle · replaces S3 Velero</text><rect x="1210" y="784" width="294" height="76" rx="8" fill="#001030" stroke="#0078D4" stroke-width="1.5"/><text x="1357" y="816" text-anchor="middle" font-size="12" fill="#F0F4F8" font-weight="normal">Azure AD / Entra</text><text x="1357" y="832" text-anchor="middle" font-size="9" fill="#90A4AE">Workload identity · replaces IAM IRSA</text><rect x="1210" y="884" width="294" height="76" rx="8" fill="#001030" stroke="#0078D4" stroke-width="1.5"/><text x="1357" y="916" text-anchor="middle" font-size="12" fill="#F0F4F8" font-weight="normal">Azure Policy</text><text x="1357" y="932" text-anchor="middle" font-size="9" fill="#90A4AE">SOC2 + data residency guardrails</text><line x1="150" y1="105" x2="150" y2="164" stroke="#64B5F6" stroke-width="1.5" marker-end="url(#aB)"/><text x="150" y="128" text-anchor="middle" font-size="9" fill="#90A4AE">HTTPS</text><line x1="246" y1="192" x2="140" y2="286" stroke="#64B5F6" stroke-width="1.5" marker-end="url(#aB)"/><text x="193" y="233" text-anchor="middle" font-size="9" fill="#90A4AE">443 route</text><line x1="860" y1="402" x2="1192" y2="122" stroke="#FF9800" stroke-width="1.5" marker-end="url(#aO)"/><text x="1026" y="256" text-anchor="middle" font-size="9" fill="#90A4AE">enqueue</text><line x1="1192" y1="222" x2="860" y2="402" stroke="#64B5F6" stroke-width="1.5" marker-end="url(#aB)"/><text x="1026" y="306" text-anchor="middle" font-size="9" fill="#90A4AE">poll</text><line x1="900" y1="402" x2="740" y2="402" stroke="#FF9800" stroke-width="1.5" stroke-dasharray="6 4" marker-end="url(#aO)"/><text x="820" y="396" text-anchor="middle" font-size="9" fill="#90A4AE">queue depth</text><line x1="900" y1="472" x2="740" y2="472" stroke="#CE93D8" stroke-width="1.5" stroke-dasharray="6 4" marker-end="url(#aP)"/><text x="820" y="466" text-anchor="middle" font-size="9" fill="#90A4AE">mount secret</text><line x1="1060" y1="867" x2="1192" y2="722" stroke="#66BB6A" stroke-width="1.5" stroke-dasharray="6 4" marker-end="url(#aG)"/><text x="1126" y="788" text-anchor="middle" font-size="9" fill="#90A4AE">backup</text></svg>