<?xml version="1.0" encoding="UTF-8"?><svg xmlns="http://www.w3.org/2000/svg" viewBox="0 0 1100 520" width="1100" height="520"><rect width="1100" height="520" fill="#0f1929"/><text x="550" y="42" text-anchor="middle" font-size="15" fill="#90CAF9" font-weight="bold">Metered Billing Per-Unit Cost (USD) — AWS US vs Azure US vs GCP US</text><rect x="90" y="70" width="970" height="330" fill="#0a1526" rx="4"/><line x1="90" y1="400" x2="1060" y2="400" stroke="#1E3A5F" stroke-width="1"/><text x="84" y="404" text-anchor="end" font-size="10" fill="#78909C">$0.000</text><line x1="90" y1="334" x2="1060" y2="334" stroke="#1E3A5F" stroke-width="1"/><text x="84" y="338" text-anchor="end" font-size="10" fill="#78909C">$0.142</text><line x1="90" y1="268" x2="1060" y2="268" stroke="#1E3A5F" stroke-width="1"/><text x="84" y="272" text-anchor="end" font-size="10" fill="#78909C">$0.283</text><line x1="90" y1="202" x2="1060" y2="202" stroke="#1E3A5F" stroke-width="1"/><text x="84" y="206" text-anchor="end" font-size="10" fill="#78909C">$0.425</text><line x1="90" y1="136" x2="1060" y2="136" stroke="#1E3A5F" stroke-width="1"/><text x="84" y="140" text-anchor="end" font-size="10" fill="#78909C">$0.566</text><line x1="90" y1="70" x2="1060" y2="70" stroke="#1E3A5F" stroke-width="1"/><text x="84" y="74" text-anchor="end" font-size="10" fill="#78909C">$0.708</text><text x="12" y="235" text-anchor="middle" font-size="10" fill="#78909C" transform="rotate(-90 12 235)">USD per unit</text><rect x="102.5" y="213.6" width="48.0" height="186.4" fill="#FF9900" rx="3" opacity="0.9"/><text x="126.5" y="210.6" text-anchor="middle" font-size="9" fill="#FF9900">$0.400</text><rect x="156.8" y="157.6" width="48.0" height="242.4" fill="#0078D4" rx="3" opacity="0.9"/><text x="180.8" y="154.6" text-anchor="middle" font-size="9" fill="#0078D4">$0.520</text><rect x="211.0" y="213.6" width="48.0" height="186.4" fill="#34A853" rx="3" opacity="0.9"/><text x="235.0" y="210.6" text-anchor="middle" font-size="9" fill="#34A853">$0.400</text><text x="187" y="415" text-anchor="middle" font-size="10" fill="#B0BEC5">Queue ops /1M</text><rect x="296.5" y="166.9" width="48.0" height="233.1" fill="#FF9900" rx="3" opacity="0.9"/><text x="320.5" y="163.9" text-anchor="middle" font-size="9" fill="#FF9900">$0.500</text><rect x="350.8" y="120.3" width="48.0" height="279.7" fill="#0078D4" rx="3" opacity="0.9"/><text x="374.8" y="117.3" text-anchor="middle" font-size="9" fill="#0078D4">$0.600</text><rect x="405.0" y="213.6" width="48.0" height="186.4" fill="#34A853" rx="3" opacity="0.9"/><text x="429.0" y="210.6" text-anchor="middle" font-size="9" fill="#34A853">$0.400</text><text x="381" y="415" text-anchor="middle" font-size="10" fill="#B0BEC5">Topic pub /1M</text><rect x="490.5" y="386.0" width="48.0" height="14.0" fill="#FF9900" rx="3" opacity="0.9"/><rect x="544.8" y="381.4" width="48.0" height="18.6" fill="#0078D4" rx="3" opacity="0.9"/><text x="568.8" y="378.4" text-anchor="middle" font-size="9" fill="#0078D4">$0.040</text><rect x="599.0" y="386.0" width="48.0" height="14.0" fill="#34A853" rx="3" opacity="0.9"/><text x="575" y="415" text-anchor="middle" font-size="10" fill="#B0BEC5">KMS /10K ops</text><rect x="684.5" y="389.3" width="48.0" height="10.7" fill="#FF9900" rx="3" opacity="0.9"/><rect x="738.8" y="388.8" width="48.0" height="11.2" fill="#0078D4" rx="3" opacity="0.9"/><rect x="793.0" y="390.7" width="48.0" height="9.3" fill="#34A853" rx="3" opacity="0.9"/><text x="769" y="415" text-anchor="middle" font-size="10" fill="#B0BEC5">Object store /GB-mo</text><rect x="878.5" y="358.1" width="48.0" height="41.9" fill="#FF9900" rx="3" opacity="0.9"/><text x="902.5" y="355.1" text-anchor="middle" font-size="9" fill="#FF9900">$0.090</text><rect x="932.8" y="359.4" width="48.0" height="40.6" fill="#0078D4" rx="3" opacity="0.9"/><text x="956.8" y="356.4" text-anchor="middle" font-size="9" fill="#0078D4">$0.087</text><rect x="987.0" y="360.4" width="48.0" height="39.6" fill="#34A853" rx="3" opacity="0.9"/><text x="1011.0" y="357.4" text-anchor="middle" font-size="9" fill="#34A853">$0.085</text><text x="963" y="415" text-anchor="middle" font-size="10" fill="#B0BEC5">Egress /GB</text><rect x="90" y="491" width="13" height="11" fill="#FF9900" rx="2"/><text x="107" y="500" font-size="11" fill="#90A4AE">AWS US</text><rect x="250" y="491" width="13" height="11" fill="#0078D4" rx="2"/><text x="267" y="500" font-size="11" fill="#90A4AE">Azure US</text><rect x="410" y="491" width="13" height="11" fill="#34A853" rx="2"/><text x="427" y="500" font-size="11" fill="#90A4AE">GCP US</text><line x1="90" y1="70" x2="90" y2="400" stroke="#455A64" stroke-width="1.5"/><line x1="90" y1="400" x2="1060" y2="400" stroke="#455A64" stroke-width="1.5"/></svg>