<svg xmlns="http://www.w3.org/2000/svg" width="1600" height="980" viewBox="0 0 1600 980"><defs><style>.bg{fill:#0f172a}.t{font:700 28px Segoe UI,Arial,sans-serif;fill:#f8fafc}.l{font:600 15px Segoe UI,Arial,sans-serif;fill:#f8fafc}.s{font:500 12px Segoe UI,Arial,sans-serif;fill:#e2e8f0}.b{stroke-width:2;rx:10;ry:10}.a{stroke:#22d3ee;stroke-width:4;fill:none;marker-end:url(#a)}.m{stroke:#f59e0b;stroke-width:4;fill:none;marker-end:url(#m)}.k{stroke:#ef4444;stroke-width:4;fill:none;marker-end:url(#k)}.o{stroke:#a78bfa;stroke-width:4;fill:none;marker-end:url(#o)}</style><marker id="a" markerWidth="12" markerHeight="12" refX="10" refY="6" orient="auto"><path d="M0,0 L12,6 L0,12 z" fill="#22d3ee"/></marker><marker id="m" markerWidth="12" markerHeight="12" refX="10" refY="6" orient="auto"><path d="M0,0 L12,6 L0,12 z" fill="#f59e0b"/></marker><marker id="k" markerWidth="12" markerHeight="12" refX="10" refY="6" orient="auto"><path d="M0,0 L12,6 L0,12 z" fill="#ef4444"/></marker><marker id="o" markerWidth="12" markerHeight="12" refX="10" refY="6" orient="auto"><path d="M0,0 L12,6 L0,12 z" fill="#a78bfa"/></marker></defs><rect class="bg" x="0" y="0" width="1600" height="980"/><text class="t" x="28" y="44">AWS Source Architecture</text><rect class="b" x="30" y="76" width="170" height="62" fill="#1d4ed8" stroke="#93c5fd"/><text class="l" x="45" y="113">Clients/Upstream</text><rect class="b" x="230" y="76" width="180" height="62" fill="#7c2d12" stroke="#fdba74"/><text class="l" x="248" y="113">DNS/Domain</text><rect class="b" x="440" y="76" width="190" height="62" fill="#7f1d1d" stroke="#fca5a5"/><text class="l" x="470" y="113">Ingress ALB/WAF</text><rect class="b" x="150" y="160" width="1240" height="760" fill="#111827" stroke="#64748b"/><text class="l" x="170" y="192">VPC/Subnets</text><rect class="b" x="190" y="220" width="760" height="430" fill="#14532d" stroke="#86efac"/><text class="l" x="210" y="250">EKS Cluster Boundary</text><rect class="b" x="220" y="276" width="130" height="54" fill="#1b5e20" stroke="#86efac"/><text class="l" x="247" y="309">REST pod</text><rect class="b" x="370" y="276" width="130" height="54" fill="#1b5e20" stroke="#86efac"/><text class="l" x="390" y="309">Router pod</text><rect class="b" x="220" y="350" width="530" height="92" fill="#1b5e20" stroke="#86efac"/><text class="s" x="238" y="382">Engine group: tika/imagemagick/libreoffice/misc/</text><text class="s" x="238" y="402">docfilters/docmerge/aio</text><rect class="b" x="770" y="276" width="110" height="54" fill="#1b5e20" stroke="#86efac"/><text class="l" x="800" y="309">KEDA</text><rect class="b" x="770" y="350" width="170" height="54" fill="#1b5e20" stroke="#86efac"/><text class="l" x="786" y="383">Network Policies</text><rect class="b" x="770" y="424" width="180" height="54" fill="#1b5e20" stroke="#86efac"/><text class="l" x="790" y="457">Kubernetes Secrets</text><rect class="b" x="1010" y="264" width="120" height="54" fill="#7c2d12" stroke="#fdba74"/><text class="l" x="1048" y="297">SNS</text><rect class="b" x="1150" y="264" width="120" height="54" fill="#7c2d12" stroke="#fdba74"/><text class="l" x="1188" y="297">SQS</text><rect class="b" x="1010" y="338" width="120" height="54" fill="#7f1d1d" stroke="#fca5a5"/><text class="l" x="1048" y="371">KMS</text><rect class="b" x="1150" y="338" width="170" height="54" fill="#7f1d1d" stroke="#fca5a5"/><text class="l" x="1170" y="371">Secrets Manager</text><rect class="b" x="1010" y="412" width="130" height="54" fill="#1d4ed8" stroke="#93c5fd"/><text class="l" x="1040" y="445">Datadog</text><rect class="b" x="1010" y="486" width="320" height="54" fill="#374151" stroke="#d1d5db"/><text class="s" x="1028" y="518">Not found in IaC: explicit API gateway</text><path class="a" d="M200 107 L230 107"/><path class="a" d="M410 107 L440 107"/><path class="a" d="M630 107 L285 276"/><path class="m" d="M1130 291 L1150 291"/><path class="m" d="M1150 291 L880 291"/><path class="m" d="M1070 318 L1070 338"/><path class="k" d="M950 451 L1150 365"/><path class="k" d="M750 396 L1010 365"/><path class="o" d="M285 330 L1075 412"/><text class="s" x="28" y="958">Key flows: request path, messaging, scaling signals, secret/KMS dependencies, and observability.</text></svg>