<svg xmlns="http://www.w3.org/2000/svg" width="1600" height="980" viewBox="0 0 1600 980"><defs><style>.bg{fill:#0b1020}.t{font:700 28px Segoe UI,Arial,sans-serif;fill:#f8fafc}.l{font:600 15px Segoe UI,Arial,sans-serif;fill:#f8fafc}.s{font:500 12px Segoe UI,Arial,sans-serif;fill:#e2e8f0}.b{stroke-width:2;rx:10;ry:10}.a{stroke:#22d3ee;stroke-width:4;fill:none;marker-end:url(#a)}.m{stroke:#f59e0b;stroke-width:4;fill:none;marker-end:url(#m)}.k{stroke:#ef4444;stroke-width:4;fill:none;marker-end:url(#k)}.o{stroke:#a78bfa;stroke-width:4;fill:none;marker-end:url(#o)}</style><marker id="a" markerWidth="12" markerHeight="12" refX="10" refY="6" orient="auto"><path d="M0,0 L12,6 L0,12 z" fill="#22d3ee"/></marker><marker id="m" markerWidth="12" markerHeight="12" refX="10" refY="6" orient="auto"><path d="M0,0 L12,6 L0,12 z" fill="#f59e0b"/></marker><marker id="k" markerWidth="12" markerHeight="12" refX="10" refY="6" orient="auto"><path d="M0,0 L12,6 L0,12 z" fill="#ef4444"/></marker><marker id="o" markerWidth="12" markerHeight="12" refX="10" refY="6" orient="auto"><path d="M0,0 L12,6 L0,12 z" fill="#a78bfa"/></marker></defs><rect class="bg" x="0" y="0" width="1600" height="980"/><text class="t" x="28" y="44">GCP Target Architecture</text><rect class="b" x="30" y="76" width="170" height="62" fill="#1d4ed8" stroke="#93c5fd"/><text class="l" x="45" y="113">Clients/Upstream</text><rect class="b" x="230" y="76" width="250" height="62" fill="#7c2d12" stroke="#fdba74"/><text class="l" x="246" y="113">Cloud DNS + LB + Armor</text><rect class="b" x="510" y="76" width="210" height="62" fill="#7f1d1d" stroke="#fca5a5"/><text class="l" x="540" y="113">Ingress Gateway</text><rect class="b" x="150" y="160" width="1240" height="760" fill="#111827" stroke="#64748b"/><text class="l" x="170" y="192">VPC/Subnets</text><rect class="b" x="190" y="220" width="760" height="430" fill="#14532d" stroke="#86efac"/><text class="l" x="210" y="250">GKE Cluster Boundary</text><rect class="b" x="220" y="276" width="130" height="54" fill="#1b5e20" stroke="#86efac"/><text class="l" x="247" y="309">REST pod</text><rect class="b" x="370" y="276" width="130" height="54" fill="#1b5e20" stroke="#86efac"/><text class="l" x="390" y="309">Router pod</text><rect class="b" x="220" y="350" width="430" height="92" fill="#1b5e20" stroke="#86efac"/><text class="s" x="238" y="390">Engine group containers (equivalent)</text><rect class="b" x="700" y="276" width="110" height="54" fill="#1b5e20" stroke="#86efac"/><text class="l" x="730" y="309">KEDA</text><rect class="b" x="700" y="350" width="170" height="54" fill="#1b5e20" stroke="#86efac"/><text class="l" x="716" y="383">Network Policies</text><rect class="b" x="700" y="424" width="170" height="54" fill="#1b5e20" stroke="#86efac"/><text class="l" x="723" y="457">K8s Secrets</text><rect class="b" x="1010" y="264" width="150" height="54" fill="#7c2d12" stroke="#fdba74"/><text class="l" x="1048" y="297">Pub/Sub</text><rect class="b" x="1180" y="264" width="180" height="54" fill="#7c2d12" stroke="#fdba74"/><text class="l" x="1200" y="297">Eventarc/Scheduler</text><rect class="b" x="1010" y="338" width="220" height="54" fill="#7f1d1d" stroke="#fca5a5"/><text class="l" x="1030" y="371">Cloud KMS + Secret Manager</text><rect class="b" x="1250" y="338" width="170" height="54" fill="#7f1d1d" stroke="#fca5a5"/><text class="l" x="1268" y="371">Workload Identity</text><rect class="b" x="1010" y="412" width="210" height="54" fill="#1d4ed8" stroke="#93c5fd"/><text class="l" x="1040" y="445">GCS + Backup + DR</text><rect class="b" x="1240" y="412" width="220" height="54" fill="#1d4ed8" stroke="#93c5fd"/><text class="l" x="1260" y="445">Monitoring + Datadog</text><rect class="b" x="1010" y="486" width="300" height="54" fill="#374151" stroke="#d1d5db"/><text class="s" x="1028" y="518">Mongo target: Firestore or Atlas</text><rect class="b" x="1010" y="560" width="330" height="54" fill="#374151" stroke="#d1d5db"/><text class="s" x="1028" y="592">Search target: Elastic or self-managed</text><path class="a" d="M200 107 L230 107"/><path class="a" d="M480 107 L510 107"/><path class="a" d="M720 107 L285 276"/><path class="m" d="M1160 291 L1180 291"/><path class="m" d="M1180 291 L810 291"/><path class="k" d="M870 451 L1010 365"/><path class="o" d="M285 330 L1350 412"/><text class="s" x="28" y="958">Equivalent detail includes edge, cluster, messaging, identity/security, storage/backup, observability, and core service flows.</text></svg>