<svg xmlns="http://www.w3.org/2000/svg" viewBox="0 0 1920 1500" width="1920" height="1500" font-family="Segoe UI, Arial, sans-serif">
  <defs>
    <marker id="arrow-blue" markerWidth="10" markerHeight="7" refX="10" refY="3.5" orient="auto">
      <polygon points="0 0, 10 3.5, 0 7" fill="#0066cc"/>
    </marker>
    <marker id="arrow-orange" markerWidth="10" markerHeight="7" refX="10" refY="3.5" orient="auto">
      <polygon points="0 0, 10 3.5, 0 7" fill="#ff6600"/>
    </marker>
    <marker id="arrow-green" markerWidth="10" markerHeight="7" refX="10" refY="3.5" orient="auto">
      <polygon points="0 0, 10 3.5, 0 7" fill="#009900"/>
    </marker>
    <marker id="arrow-purple" markerWidth="10" markerHeight="7" refX="10" refY="3.5" orient="auto">
      <polygon points="0 0, 10 3.5, 0 7" fill="#9900cc"/>
    </marker>
    <marker id="arrow-red" markerWidth="10" markerHeight="7" refX="10" refY="3.5" orient="auto">
      <polygon points="0 0, 10 3.5, 0 7" fill="#cc0000"/>
    </marker>
    <style>
      .title { font-size: 18px; font-weight: bold; fill: #1a1a2e; }
      .section-label { font-size: 12px; font-weight: bold; fill: #1b5e20; }
      .box-label { font-size: 10px; fill: #1a1a2e; text-anchor: middle; }
      .box-label-top { font-size: 11px; font-weight: bold; fill: #1a1a2e; text-anchor: middle; }
      .note { font-size: 9px; fill: #424242; text-anchor: middle; }
      .dashed-note { font-size: 9px; fill: #888; text-anchor: middle; font-style: italic; }
    </style>
    <filter id="glow">
      <feGaussianBlur stdDeviation="2" result="coloredBlur"/>
      <feMerge><feMergeNode in="coloredBlur"/><feMergeNode in="SourceGraphic"/></feMerge>
    </filter>
  </defs>

  <!-- Background -->
  <rect width="1920" height="1500" fill="#f1f8e9"/>

  <!-- Title -->
  <text x="960" y="35" text-anchor="middle" class="title">GCP Target Architecture — HxPR Platform Migration</text>

  <!-- Internet -->
  <rect x="660" y="50" width="600" height="55" rx="8" fill="#dae8fc" stroke="#6c8ebf" stroke-width="2"/>
  <text x="960" y="72" class="box-label-top">Internet / Upstream Clients</text>
  <text x="960" y="90" class="note">hxp.experience.hyland.com · hxp.app.hyland.com · hxp.app.hyland.eu</text>

  <!-- Cloud DNS -->
  <rect x="450" y="128" width="300" height="52" rx="6" fill="#fff9c4" stroke="#f57f17" stroke-width="1.5"/>
  <text x="600" y="150" class="box-label-top">GCP Cloud DNS</text>
  <text x="600" y="168" class="note">experience.hyland.com / app.hyland.eu zones</text>

  <!-- cert-manager -->
  <rect x="780" y="128" width="280" height="52" rx="6" fill="#fce4ec" stroke="#c62828" stroke-width="1.5"/>
  <text x="920" y="150" class="box-label-top">cert-manager v1.20.0</text>
  <text x="920" y="168" class="note">GCP Cloud DNS01 solver · Workload Identity</text>

  <!-- HTTPS LB + Cloud Armor -->
  <rect x="550" y="205" width="580" height="60" rx="8" fill="#fce4ec" stroke="#c62828" stroke-width="2"/>
  <text x="840" y="228" class="box-label-top">GCP HTTPS External Load Balancer (Premium) + Cloud Armor</text>
  <text x="840" y="246" class="note">CRS managed rules · custom SSL policy (TLS 1.2+) · Backend Service timeout 900s</text>

  <!-- GCP VPC -->
  <rect x="40" y="290" width="1840" height="1060" rx="10" fill="#e8f5e9" stroke="#2e7d32" stroke-width="2" stroke-dasharray="8,4"/>
  <text x="60" y="314" class="section-label">GCP VPC (us-central1 · europe-west1) — 3 Zones · Private Subnets</text>

  <!-- GKE Cluster -->
  <rect x="460" y="332" width="1160" height="740" rx="8" fill="#c8e6c9" stroke="#388e3c" stroke-width="2"/>
  <text x="480" y="355" class="section-label">GKE Cluster (Standard mode) — n2-standard-4 (4 vCPU / 16 GB) — 3 to 25 nodes — GKE CA + KEDA v2.x</text>

  <!-- NGINX GKE -->
  <rect x="480" y="370" width="210" height="72" rx="6" fill="#dae8fc" stroke="#1565c0" stroke-width="1.5"/>
  <text x="585" y="393" class="box-label-top">NGINX Ingress v4.15.1</text>
  <text x="585" y="409" class="note">GCP ILB-backed (private)</text>
  <text x="585" y="425" class="note">Service annotations: GCP ILB</text>

  <!-- GKE CA + KEDA -->
  <rect x="480" y="456" width="210" height="70" rx="6" fill="#fff9c4" stroke="#f57f17" stroke-width="1.5"/>
  <text x="585" y="478" class="box-label-top">GKE Cluster Autoscaler</text>
  <text x="585" y="496" class="note">+ KEDA v2.x (event-driven HPA)</text>
  <text x="585" y="512" class="note">Karpenter equivalent</text>

  <!-- cert-manager cluster -->
  <rect x="480" y="540" width="210" height="58" rx="6" fill="#fce4ec" stroke="#c62828" stroke-width="1.5"/>
  <text x="585" y="562" class="box-label-top">cert-manager v1.20.0</text>
  <text x="585" y="579" class="note">GCP DNS01 · Workload Identity</text>

  <!-- Datadog -->
  <rect x="480" y="613" width="210" height="58" rx="6" fill="#e1d5e7" stroke="#7b1fa2" stroke-width="1.5"/>
  <text x="585" y="636" class="box-label-top">Datadog Agent v3.193.0</text>
  <text x="585" y="653" class="note">APM · JVM · SLO (unchanged)</text>

  <!-- Velero -->
  <rect x="480" y="686" width="210" height="58" rx="6" fill="#fff9c4" stroke="#f57f17" stroke-width="1.5"/>
  <text x="585" y="708" class="box-label-top">Velero v12.0.0</text>
  <text x="585" y="725" class="note">→ GCS cross-region · Workload Id</text>

  <!-- GCP Workload Identity -->
  <rect x="480" y="758" width="210" height="58" rx="6" fill="#fce4ec" stroke="#c62828" stroke-width="1.5"/>
  <text x="585" y="780" class="box-label-top">GCP Workload Identity</text>
  <text x="585" y="797" class="note">+ Secret Manager CSI Driver</text>

  <!-- OpenSearch GKE -->
  <rect x="480" y="830" width="210" height="85" rx="6" fill="#bbdefb" stroke="#1565c0" stroke-width="2"/>
  <text x="585" y="853" class="box-label-top">OpenSearch 2.11 on GKE</text>
  <text x="585" y="870" class="note">n1-highmem-2 × 12 nodes</text>
  <text x="585" y="886" class="note">(9 data + 3 masters)</text>
  <text x="585" y="902" class="note">Persistent Disk SSD 128 GB/node</text>

  <!-- hxpr namespace GKE -->
  <rect x="720" y="348" width="880" height="700" rx="8" fill="#a5d6a7" stroke="#388e3c" stroke-width="1.5"/>
  <text x="740" y="370" class="section-label">hxpr namespace (GKE)</text>

  <!-- GCP Pods -->
  <rect x="740" y="387" width="210" height="90" rx="6" fill="#dae8fc" stroke="#2e7d32" stroke-width="1.5"/>
  <text x="845" y="409" class="box-label-top">HXPR API Pod 1</text>
  <text x="845" y="425" class="note">hxpr-app-jvm v2.1.280</text>
  <text x="845" y="441" class="note">pubsub-java SDK</text>
  <text x="845" y="457" class="note">GCS storage SDK</text>
  <text x="845" y="473" class="note">0.3–1 vCPU / 1.5–2 Gi</text>

  <rect x="965" y="387" width="210" height="90" rx="6" fill="#dae8fc" stroke="#2e7d32" stroke-width="1.5"/>
  <text x="1070" y="409" class="box-label-top">HXPR API Pod 2</text>
  <text x="1070" y="425" class="note">hxpr-app-jvm v2.1.280</text>
  <text x="1070" y="441" class="note">GCP OpenSearch SDKs</text>
  <text x="1070" y="457" class="note">Atlas JDBC driver unchanged</text>
  <text x="1070" y="473" class="note">0.3–1 vCPU / 1.5–2 Gi</text>

  <rect x="1190" y="387" width="210" height="90" rx="6" fill="#dae8fc" stroke="#2e7d32" stroke-width="1.5"/>
  <text x="1295" y="409" class="box-label-top">HXPR API Pod 3</text>
  <text x="1295" y="425" class="note">hxpr-app-jvm v2.1.280</text>
  <text x="1295" y="441" class="note">liveness /nuxeo/runningstatus</text>
  <text x="1295" y="457" class="note">GCP Secret Manager CSI</text>
  <text x="1295" y="473" class="note">0.3–1 vCPU / 1.5–2 Gi</text>

  <rect x="1415" y="387" width="165" height="90" rx="6" fill="#dae8fc" stroke="#2e7d32" stroke-width="1.5"/>
  <text x="1497" y="413" class="box-label-top">Router Pod</text>
  <text x="1497" y="431" class="note">transform routing</text>
  <text x="1497" y="449" class="note">GCP-hosted hxts URL</text>

  <rect x="740" y="495" width="840" height="55" rx="6" fill="#fff9c4" stroke="#f57f17" stroke-width="1"/>
  <text x="1160" y="519" class="box-label-top">Transform Engine Workers [Not provisioned in this IaC scope]</text>
  <text x="1160" y="536" class="note">tika · imagemagick · libreoffice · docfilters · docmerge — config in hxts scope</text>

  <rect x="740" y="565" width="280" height="58" rx="6" fill="#fce4ec" stroke="#c62828" stroke-width="1.5"/>
  <text x="880" y="587" class="box-label-top">GCP Workload Identity</text>
  <text x="880" y="605" class="note">Replaces IRSA · 10+ service accounts</text>

  <rect x="740" y="636" width="280" height="55" rx="6" fill="#fce4ec" stroke="#c62828" stroke-width="1.5"/>
  <text x="880" y="658" class="box-label-top">GCP Secret Manager</text>
  <text x="880" y="675" class="note">DB creds · Pub/Sub topics · CMEK refs</text>

  <rect x="1040" y="565" width="200" height="55" rx="6" fill="#fff9c4" stroke="#f57f17" stroke-width="1.5"/>
  <text x="1140" y="585" class="box-label-top">KEDA v2.x</text>
  <text x="1140" y="602" class="note">Event-driven HPA · Karpenter equiv.</text>

  <!-- Cloud Functions -->
  <rect x="80" y="382" width="320" height="115" rx="6" fill="#fff9c4" stroke="#f57f17" stroke-width="1.5"/>
  <text x="240" y="404" class="box-label-top">GCP Cloud Functions 2nd gen</text>
  <text x="240" y="422" class="note">Python 3.10 · VPC Connector</text>
  <text x="240" y="438" class="note">env_decommission function</text>
  <text x="240" y="454" class="note">malware_quarantine function</text>
  <text x="240" y="470" class="note">Triggered by GCP SCC + Cloud DLP</text>
  <text x="240" y="486" class="note">scan result event</text>

  <!-- ── Bottom: Pub/Sub, GCS ── -->
  <!-- Pub/Sub -->
  <rect x="60" y="1058" width="420" height="125" rx="6" fill="#ffe0b2" stroke="#e65100" stroke-width="2"/>
  <text x="270" y="1080" class="box-label-top">GCP Cloud Pub/Sub</text>
  <text x="270" y="1098" class="note">21 subscriptions + message attribute filters (SNS filter equiv.)</text>
  <text x="270" y="1116" class="note">3 topics: async-tasks · repo-events · transform-reply</text>
  <text x="270" y="1134" class="note">Pull + push delivery · dead-letter topics</text>
  <text x="270" y="1150" class="note">KMS CMEK encryption · $0.04/M msgs (10× cheaper than SQS)</text>
  <text x="270" y="1168" class="note">SDK: pubsub-java client library</text>

  <!-- GCS -->
  <rect x="510" y="1058" width="400" height="125" rx="6" fill="#ffe0b2" stroke="#e65100" stroke-width="2"/>
  <text x="710" y="1080" class="box-label-top">GCP Cloud Storage (Standard · CMEK)</text>
  <text x="710" y="1098" class="note">content · upload · bulk-ingest buckets</text>
  <text x="710" y="1116" class="note">retention bucket (Object Retention policy — S3 Object Lock equiv.)</text>
  <text x="710" y="1134" class="note">velero backup bucket (cross-region replication ≤15 min)</text>
  <text x="710" y="1152" class="note">GCP Cloud KMS CMEK encryption (SSE)</text>
  <text x="710" y="1170" class="note">$0.020/GB-month Standard (US) — vs $0.023/GB S3</text>

  <!-- MongoDB Atlas GCP -->
  <rect x="1690" y="422" width="210" height="125" rx="6" fill="#e1d5e7" stroke="#7b1fa2" stroke-width="2"/>
  <text x="1795" y="448" class="box-label-top">MongoDB Atlas</text>
  <text x="1795" y="465" class="note">(GCP-backed)</text>
  <text x="1795" y="482" class="note">M40 × 3 + M30 × 1</text>
  <text x="1795" y="499" class="note">v7.0</text>
  <text x="1795" y="516" class="note">Private Service Connect</text>
  <text x="1795" y="533" class="note">auto-scale M40→M60</text>
  <text x="1795" y="550" class="note">europe-west1 / us-central1</text>

  <!-- GCP Cloud KMS -->
  <rect x="1690" y="565" width="210" height="90" rx="6" fill="#fce4ec" stroke="#c62828" stroke-width="1.5"/>
  <text x="1795" y="588" class="box-label-top">GCP Cloud KMS</text>
  <text x="1795" y="606" class="note">5+ CMEK keys (software)</text>
  <text x="1795" y="624" class="note">Key rotation enabled</text>
  <text x="1795" y="642" class="note">Workload Identity IAM</text>

  <!-- GCP Secret Manager -->
  <rect x="1690" y="672" width="210" height="80" rx="6" fill="#fce4ec" stroke="#c62828" stroke-width="1.5"/>
  <text x="1795" y="695" class="box-label-top">GCP Secret Manager</text>
  <text x="1795" y="713" class="note">Replaces AWS Secrets Manager</text>
  <text x="1795" y="731" class="note">CSI driver integration</text>
  <text x="1795" y="749" class="note">Workload Identity RBAC</text>

  <!-- GCP SCC + Cloud DLP -->
  <rect x="1690" y="770" width="210" height="95" rx="6" fill="#fce4ec" stroke="#c62828" stroke-width="2"/>
  <text x="1795" y="793" class="box-label-top">GCP SCC + Cloud DLP</text>
  <text x="1795" y="810" class="note">GuardDuty equivalent</text>
  <text x="1795" y="828" class="note">DLP scan on GCS objects</text>
  <text x="1795" y="846" class="note">→ Cloud Functions</text>
  <text x="1795" y="864" class="note">quarantine trigger</text>

  <!-- GCP Cloud Logging -->
  <rect x="1690" y="883" width="210" height="90" rx="6" fill="#fff9c4" stroke="#f57f17" stroke-width="1.5"/>
  <text x="1795" y="906" class="box-label-top">GCP Cloud Logging</text>
  <text x="1795" y="924" class="note">+ Cloud Monitoring</text>
  <text x="1795" y="942" class="note">GKE control plane · Cloud Armor</text>
  <text x="1795" y="960" class="note">Functions logs · 14d retention</text>

  <!-- Datadog SaaS -->
  <rect x="1690" y="990" width="210" height="80" rx="6" fill="#e1d5e7" stroke="#7b1fa2" stroke-width="2"/>
  <text x="1795" y="1013" class="box-label-top">Datadog SaaS</text>
  <text x="1795" y="1031" class="note">APM · Metrics · Logs</text>
  <text x="1795" y="1049" class="note">SLO Monitors (unchanged)</text>
  <text x="1795" y="1067" class="note">GCP integration plugin</text>

  <!-- Rancher -->
  <rect x="1690" y="1088" width="210" height="70" rx="6" fill="#fff9c4" stroke="#f57f17" stroke-width="1.5"/>
  <text x="1795" y="1112" class="box-label-top">Rancher (GKE import)</text>
  <text x="1795" y="1130" class="note">rancher.us.tools.hyland.dev</text>
  <text x="1795" y="1148" class="note">OKTA RBAC groups preserved</text>

  <!-- ── Arrows ── -->
  <!-- Internet → Cloud DNS → LB -->
  <line x1="900" y1="105" x2="670" y2="128" stroke="#0066cc" stroke-width="2.5" stroke-dasharray="4,2" marker-end="url(#arrow-blue)"/>
  <line x1="720" y1="180" x2="790" y2="205" stroke="#0066cc" stroke-width="2.5" marker-end="url(#arrow-blue)" filter="url(#glow)"/>
  <!-- LB → NGINX -->
  <line x1="770" y1="265" x2="550" y2="370" stroke="#0066cc" stroke-width="2.5" marker-end="url(#arrow-blue)" filter="url(#glow)"/>
  <!-- NGINX → Pods -->
  <line x1="690" y1="406" x2="740" y2="432" stroke="#0066cc" stroke-width="2" marker-end="url(#arrow-blue)"/>
  <line x1="690" y1="416" x2="965" y2="432" stroke="#0066cc" stroke-width="2" marker-end="url(#arrow-blue)"/>
  <line x1="690" y1="426" x2="1190" y2="432" stroke="#0066cc" stroke-width="2" marker-end="url(#arrow-blue)"/>
  <!-- Pods → Pub/Sub -->
  <path d="M845,477 C845,1010 270,1010 270,1058" fill="none" stroke="#ff6600" stroke-width="2.5" stroke-dasharray="7,3" marker-end="url(#arrow-orange)"/>
  <!-- Pods → GCS -->
  <path d="M1070,477 C1070,1005 710,1005 710,1058" fill="none" stroke="#ff9900" stroke-width="2" stroke-dasharray="6,3" marker-end="url(#arrow-orange)"/>
  <!-- Pods → OpenSearch -->
  <path d="M1295,477 C1295,905 585,905 585,915" fill="none" stroke="#009900" stroke-width="2" stroke-dasharray="6,3" marker-end="url(#arrow-green)"/>
  <!-- Pods → Atlas -->
  <path d="M1580,432 C1660,432 1690,484 1690,484" fill="none" stroke="#9900cc" stroke-width="2.5" stroke-dasharray="6,3" marker-end="url(#arrow-purple)"/>
  <!-- Datadog Agent → Datadog SaaS -->
  <line x1="690" y1="642" x2="1690" y2="1030" stroke="#9673a6" stroke-width="2" stroke-dasharray="5,3" marker-end="url(#arrow-purple)"/>
  <!-- Velero → GCS -->
  <path d="M585,744 C585,1100 710,1100 710,1183" fill="none" stroke="#aa6600" stroke-width="1.5" stroke-dasharray="4,2" marker-end="url(#arrow-orange)"/>
  <!-- GCP SCC → Cloud Functions -->
  <line x1="1795" y1="770" x2="400" y2="497" stroke="#cc0000" stroke-width="2.5" stroke-dasharray="6,3" marker-end="url(#arrow-red)"/>

  <!-- Legend -->
  <rect x="40" y="1215" width="1200" height="250" rx="6" fill="#fff" stroke="#ccc" stroke-width="1"/>
  <text x="60" y="1242" class="section-label">Legend — GCP Target Architecture</text>
  <line x1="70" y1="1268" x2="130" y2="1268" stroke="#0066cc" stroke-width="2.5" marker-end="url(#arrow-blue)"/>
  <text x="140" y="1272" class="box-label" style="text-anchor:start">Request flow: Clients → Cloud DNS → HTTPS LB + Cloud Armor → NGINX Ingress → HXPR Pods</text>
  <line x1="70" y1="1298" x2="130" y2="1298" stroke="#ff6600" stroke-width="2" stroke-dasharray="7,3" marker-end="url(#arrow-orange)"/>
  <text x="140" y="1302" class="box-label" style="text-anchor:start">Messaging flow: Pods → GCP Cloud Pub/Sub (SDK: pubsub-java) · $0.04/M msgs (10× AWS SQS)</text>
  <line x1="70" y1="1328" x2="130" y2="1328" stroke="#009900" stroke-width="2" stroke-dasharray="6,3" marker-end="url(#arrow-green)"/>
  <text x="140" y="1332" class="box-label" style="text-anchor:start">Search flow: Pods → OpenSearch 2.11 self-hosted on GKE (n1-highmem-2 × 12)</text>
  <line x1="70" y1="1358" x2="130" y2="1358" stroke="#9900cc" stroke-width="2.5" stroke-dasharray="6,3" marker-end="url(#arrow-purple)"/>
  <text x="140" y="1362" class="box-label" style="text-anchor:start">Database flow: Pods → MongoDB Atlas M40 (GCP-backed, Private Service Connect)</text>
  <line x1="70" y1="1388" x2="130" y2="1388" stroke="#cc0000" stroke-width="2.5" stroke-dasharray="6,3" marker-end="url(#arrow-red)"/>
  <text x="140" y="1392" class="box-label" style="text-anchor:start">Security flow: GCP SCC + Cloud DLP → Cloud Functions (Python 3.10, malware quarantine)</text>
  <line x1="70" y1="1418" x2="130" y2="1418" stroke="#9673a6" stroke-width="2" stroke-dasharray="5,3" marker-end="url(#arrow-purple)"/>
  <text x="140" y="1422" class="box-label" style="text-anchor:start">Observability: Datadog Agent → Datadog SaaS (cloud-agnostic, no change)</text>
  <text x="140" y="1452" class="note" style="text-anchor:start">Cost delta vs AWS: −4.3% (US) · −4.1% (EU) · −2.7% (AU) at on-demand pricing · GCP sustained-use discount applies automatically</text>
</svg>
