<svg xmlns="http://www.w3.org/2000/svg" viewBox="0 0 1920 1500" width="1920" height="1500" font-family="Segoe UI, Arial, sans-serif">
  <defs>
    <marker id="arrow-blue" markerWidth="10" markerHeight="7" refX="10" refY="3.5" orient="auto">
      <polygon points="0 0, 10 3.5, 0 7" fill="#0066cc"/>
    </marker>
    <marker id="arrow-orange" markerWidth="10" markerHeight="7" refX="10" refY="3.5" orient="auto">
      <polygon points="0 0, 10 3.5, 0 7" fill="#ff6600"/>
    </marker>
    <marker id="arrow-green" markerWidth="10" markerHeight="7" refX="10" refY="3.5" orient="auto">
      <polygon points="0 0, 10 3.5, 0 7" fill="#009900"/>
    </marker>
    <marker id="arrow-purple" markerWidth="10" markerHeight="7" refX="10" refY="3.5" orient="auto">
      <polygon points="0 0, 10 3.5, 0 7" fill="#9900cc"/>
    </marker>
    <marker id="arrow-red" markerWidth="10" markerHeight="7" refX="10" refY="3.5" orient="auto">
      <polygon points="0 0, 10 3.5, 0 7" fill="#cc0000"/>
    </marker>
    <style>
      .title { font-size: 18px; font-weight: bold; fill: #1a1a2e; }
      .section-label { font-size: 12px; font-weight: bold; fill: #333; }
      .box-label { font-size: 10px; fill: #1a1a2e; text-anchor: middle; }
      .box-label-top { font-size: 11px; font-weight: bold; fill: #1a1a2e; text-anchor: middle; }
      .note { font-size: 9px; fill: #555; text-anchor: middle; font-style: italic; }
      .dashed-note { font-size: 9px; fill: #888; text-anchor: middle; font-style: italic; }
    </style>
    <filter id="glow-blue">
      <feGaussianBlur stdDeviation="2" result="coloredBlur"/>
      <feMerge><feMergeNode in="coloredBlur"/><feMergeNode in="SourceGraphic"/></feMerge>
    </filter>
    <filter id="glow-orange">
      <feGaussianBlur stdDeviation="2" result="coloredBlur"/>
      <feMerge><feMergeNode in="coloredBlur"/><feMergeNode in="SourceGraphic"/></feMerge>
    </filter>
  </defs>

  <!-- Background -->
  <rect width="1920" height="1500" fill="#fafbfc"/>

  <!-- Title -->
  <text x="960" y="35" text-anchor="middle" class="title">AWS Source Architecture — HxPR Platform (terraform-aws-hxpr-environment + tf-cfg-hxpr-infrastructure)</text>

  <!-- ── Internet Zone ── -->
  <rect x="660" y="50" width="600" height="55" rx="8" fill="#dae8fc" stroke="#6c8ebf" stroke-width="2"/>
  <text x="960" y="72" class="box-label-top">Internet / Upstream Clients</text>
  <text x="960" y="90" class="note">hxp.experience.hyland.com · hxp.app.hyland.com · hxp.app.hyland.eu</text>

  <!-- Route53 -->
  <rect x="480" y="130" width="320" height="52" rx="6" fill="#fff2cc" stroke="#d6b656" stroke-width="1.5"/>
  <text x="640" y="150" class="box-label-top">Amazon Route53</text>
  <text x="640" y="168" class="note">DNS — experience.hyland.com / app.hyland.eu</text>

  <!-- ACM -->
  <rect x="830" y="130" width="270" height="52" rx="6" fill="#fff2cc" stroke="#d6b656" stroke-width="1.5"/>
  <text x="965" y="150" class="box-label-top">AWS ACM</text>
  <text x="965" y="168" class="note">TLS Certificates · cert-manager v1.20.0 DNS01</text>

  <!-- WAFv2 -->
  <rect x="620" y="205" width="400" height="52" rx="6" fill="#f8cecc" stroke="#b85450" stroke-width="2"/>
  <text x="820" y="226" class="box-label-top">AWS WAFv2 (REGIONAL)</text>
  <text x="820" y="244" class="note">AWSManagedRulesCommonRuleSet · CloudWatch logs 7d</text>

  <!-- VPC outer boundary -->
  <rect x="40" y="278" width="1840" height="1070" rx="10" fill="#f5f5f5" stroke="#666" stroke-width="2" stroke-dasharray="8,4"/>
  <text x="60" y="300" class="section-label">AWS VPC (us-east-1 / eu-central-1) — Multi-AZ Public + Private Subnets</text>

  <!-- Public Subnet -->
  <rect x="60" y="315" width="380" height="160" rx="8" fill="#e1f5fe" stroke="#0288d1" stroke-width="1.5"/>
  <text x="250" y="335" class="section-label">Public Subnets</text>

  <!-- ALB -->
  <rect x="75" y="348" width="220" height="80" rx="6" fill="#dae8fc" stroke="#6c8ebf" stroke-width="1.5"/>
  <text x="185" y="368" class="box-label-top">AWS ALB</text>
  <text x="185" y="385" class="note">"content-ingress"</text>
  <text x="185" y="400" class="note">Application · TLS 1.2+ · idle 900s</text>

  <!-- NAT GW -->
  <rect x="315" y="360" width="110" height="55" rx="6" fill="#fff2cc" stroke="#d6b656" stroke-width="1.5"/>
  <text x="370" y="382" class="box-label-top">NAT</text>
  <text x="370" y="398" class="note">Gateway</text>

  <!-- Private Subnet container -->
  <rect x="460" y="315" width="1400" height="1010" rx="8" fill="#e8f5e9" stroke="#388e3c" stroke-width="1.5"/>
  <text x="480" y="335" class="section-label">Private Subnets</text>

  <!-- EKS Cluster boundary -->
  <rect x="485" y="350" width="1150" height="765" rx="8" fill="#d5e8d4" stroke="#82b366" stroke-width="2"/>
  <text x="510" y="372" class="section-label">Amazon EKS Cluster (terraform-aws-modules/eks v20.36.0 · m5.xlarge · Bottlerocket x86_64 · ON_DEMAND · min 3 / max 25 nodes)</text>

  <!-- NGINX Ingress -->
  <rect x="505" y="385" width="210" height="75" rx="6" fill="#dae8fc" stroke="#6c8ebf" stroke-width="1.5"/>
  <text x="610" y="406" class="box-label-top">NGINX Ingress</text>
  <text x="610" y="422" class="note">ingress-nginx v4.15.1</text>
  <text x="610" y="438" class="note">Private NLB-backed</text>

  <!-- Karpenter -->
  <rect x="505" y="475" width="210" height="60" rx="6" fill="#fff2cc" stroke="#d6b656" stroke-width="1.5"/>
  <text x="610" y="498" class="box-label-top">Karpenter v1.10.0</text>
  <text x="610" y="515" class="note">Node Autoscaler · IRSA-enabled</text>

  <!-- cert-manager -->
  <rect x="505" y="550" width="210" height="55" rx="6" fill="#f8cecc" stroke="#b85450" stroke-width="1.5"/>
  <text x="610" y="573" class="box-label-top">cert-manager v1.20.0</text>
  <text x="610" y="589" class="note">DNS01 · IRSA · Route53</text>

  <!-- Datadog Agent -->
  <rect x="505" y="620" width="210" height="55" rx="6" fill="#e1d5e7" stroke="#9673a6" stroke-width="1.5"/>
  <text x="610" y="643" class="box-label-top">Datadog Agent v3.193.0</text>
  <text x="610" y="659" class="note">APM · JVM · SLO monitors</text>

  <!-- Velero -->
  <rect x="505" y="690" width="210" height="55" rx="6" fill="#fff2cc" stroke="#d6b656" stroke-width="1.5"/>
  <text x="610" y="713" class="box-label-top">Velero v12.0.0</text>
  <text x="610" y="729" class="note">Cluster backup → S3 · IRSA</text>

  <!-- hxpr namespace -->
  <rect x="740" y="360" width="880" height="680" rx="8" fill="#c8e6c9" stroke="#4caf50" stroke-width="1.5"/>
  <text x="760" y="380" class="section-label">hxpr namespace</text>

  <!-- Pod 1 -->
  <rect x="758" y="395" width="200" height="85" rx="6" fill="#dae8fc" stroke="#6c8ebf" stroke-width="1.5"/>
  <text x="858" y="415" class="box-label-top">HXPR API Pod 1</text>
  <text x="858" y="432" class="note">hxpr-app-jvm v2.1.280</text>
  <text x="858" y="448" class="note">0.3–1 vCPU / 1.5–2 Gi</text>
  <text x="858" y="464" class="note">singleNode arch · 3 replicas</text>

  <!-- Pod 2 -->
  <rect x="975" y="395" width="200" height="85" rx="6" fill="#dae8fc" stroke="#6c8ebf" stroke-width="1.5"/>
  <text x="1075" y="415" class="box-label-top">HXPR API Pod 2</text>
  <text x="1075" y="432" class="note">hxpr-app-jvm v2.1.280</text>
  <text x="1075" y="448" class="note">0.3–1 vCPU / 1.5–2 Gi</text>
  <text x="1075" y="464" class="note">ClusterIP svc port 8080</text>

  <!-- Pod 3 -->
  <rect x="1192" y="395" width="200" height="85" rx="6" fill="#dae8fc" stroke="#6c8ebf" stroke-width="1.5"/>
  <text x="1292" y="415" class="box-label-top">HXPR API Pod 3</text>
  <text x="1292" y="432" class="note">hxpr-app-jvm v2.1.280</text>
  <text x="1292" y="448" class="note">0.3–1 vCPU / 1.5–2 Gi</text>
  <text x="1292" y="464" class="note">liveness /nuxeo/runningstatus</text>

  <!-- Router Pod -->
  <rect x="1409" y="395" width="190" height="85" rx="6" fill="#dae8fc" stroke="#6c8ebf" stroke-width="1.5"/>
  <text x="1504" y="415" class="box-label-top">Router Pod</text>
  <text x="1504" y="432" class="note">Transform routing</text>
  <text x="1504" y="448" class="note">hxts URL map (transform.</text>
  <text x="1504" y="464" class="note">experience.hyland.com)</text>

  <!-- Engine Group -->
  <rect x="758" y="498" width="840" height="65" rx="6" fill="#fff9c4" stroke="#f9a825" stroke-width="1.5"/>
  <text x="1178" y="522" class="box-label-top">Transform Engine Workers (hxts scope)</text>
  <text x="1178" y="540" class="note">tika · imagemagick · libreoffice · misc · docfilters · docmerge · aio — [Not provisioned in this IaC scope]</text>

  <!-- K8s Secrets -->
  <rect x="758" y="580" width="260" height="60" rx="6" fill="#fce4ec" stroke="#c62828" stroke-width="1.5"/>
  <text x="888" y="603" class="box-label-top">Kubernetes Secrets</text>
  <text x="888" y="620" class="note">DB creds · SQS ARNs · KMS key refs</text>

  <!-- IRSA -->
  <rect x="758" y="655" width="260" height="60" rx="6" fill="#fce4ec" stroke="#c62828" stroke-width="1.5"/>
  <text x="888" y="678" class="box-label-top">IRSA Service Account</text>
  <text x="888" y="695" class="note">environment-{id}-role · OIDC + STS</text>

  <!-- KEDA: Not found -->
  <rect x="1040" y="580" width="180" height="60" rx="6" fill="#f5f5f5" stroke="#bbb" stroke-width="1.5" stroke-dasharray="5,3"/>
  <text x="1130" y="603" class="dashed-note">KEDA</text>
  <text x="1130" y="620" class="dashed-note">[Not found in IaC]</text>

  <!-- Network Policies: Not found -->
  <rect x="1240" y="580" width="200" height="60" rx="6" fill="#f5f5f5" stroke="#bbb" stroke-width="1.5" stroke-dasharray="5,3"/>
  <text x="1340" y="603" class="dashed-note">Network Policies</text>
  <text x="1340" y="620" class="dashed-note">[Not found in IaC]</text>

  <!-- ── EKS node details ── -->
  <rect x="758" y="730" width="840" height="280" rx="6" fill="#f9fbe7" stroke="#9ccc65" stroke-width="1"/>
  <text x="1178" y="752" class="section-label">EKS Managed Node Group (Bottlerocket AMI · ON_DEMAND)</text>
  <text x="1178" y="772" class="box-label">Instance: m5.xlarge (4 vCPU / 16 GB RAM) · EBS gp3: 4 GB OS + 30 GB data</text>
  <text x="1178" y="790" class="box-label">Karpenter-managed scaling · IRSA: karpenter_irsa · AmazonSSMManagedInstanceCore</text>

  <!-- ── Bottom layer: Messaging, S3, OpenSearch ── -->

  <!-- SQS -->
  <rect x="60" y="1080" width="380" height="140" rx="6" fill="#ffe0b2" stroke="#e65100" stroke-width="2"/>
  <text x="250" y="1102" class="box-label-top">Amazon SQS (21 Standard Queues · KMS CMK)</text>
  <text x="250" y="1120" class="note">trash · retentionExpired · deletion · removeProxy · setProperties</text>
  <text x="250" y="1136" class="note">setSystemProperties · updateReadAcls · scroller · transientStorageGC</text>
  <text x="250" y="1152" class="note">computeDigest · fulltextExtractor · updateAceStatus · bucketIndexing</text>
  <text x="250" y="1168" class="note">indexing · scrollerIndexing · scrollerDocument · bulkImport · cleanupOrphans</text>
  <text x="250" y="1184" class="note">+ 2 hxts-transform-reply FIFO-like queues</text>

  <!-- SNS -->
  <rect x="465" y="1080" width="320" height="140" rx="6" fill="#ffe0b2" stroke="#e65100" stroke-width="2"/>
  <text x="625" y="1102" class="box-label-top">Amazon SNS (3 Topics · KMS CMK)</text>
  <text x="625" y="1122" class="note">hxpr-repository-async-tasks</text>
  <text x="625" y="1140" class="note">hxpr-repository-events</text>
  <text x="625" y="1158" class="note">hxts-transform-reply-events (external ARN)</text>
  <text x="625" y="1178" class="note">fan-out → SQS subscribers</text>

  <!-- S3 -->
  <rect x="810" y="1080" width="420" height="140" rx="6" fill="#ffe0b2" stroke="#e65100" stroke-width="2"/>
  <text x="1020" y="1102" class="box-label-top">Amazon S3 (Standard · KMS-SSE CMK · Versioning)</text>
  <text x="1020" y="1120" class="note">hxpr-{id}-{env}-{region}-hy (content · CORS for dev)</text>
  <text x="1020" y="1136" class="note">upload-{id}-{env}-{region}-hy (direct upload)</text>
  <text x="1020" y="1152" class="note">bulk-ingestion bucket · retention bucket (Object Lock)</text>
  <text x="1020" y="1168" class="note">velero-hxpr-{env}.{region}-hy</text>
  <text x="1020" y="1184" class="note">Cross-region replication → us-west-2 (15-min RTO)</text>

  <!-- OpenSearch -->
  <rect x="1255" y="1080" width="380" height="140" rx="6" fill="#bbdefb" stroke="#1565c0" stroke-width="2"/>
  <text x="1445" y="1102" class="box-label-top">AWS OpenSearch Service 2.11</text>
  <text x="1445" y="1120" class="note">r5.large.search (2 vCPU / 16 GB RAM)</text>
  <text x="1445" y="1138" class="note">12 nodes: 9 data + 3 dedicated masters (prod)</text>
  <text x="1445" y="1154" class="note">3-AZ zone awareness · 10 GB EBS/node</text>
  <text x="1445" y="1170" class="note">multi_az_with_standby=true</text>
  <text x="1445" y="1186" class="note">Node-to-node + at-rest encryption</text>

  <!-- ── Right panel: External services ── -->
  <!-- Lambda -->
  <rect x="1680" y="350" width="210" height="110" rx="6" fill="#fff9c4" stroke="#f9a825" stroke-width="1.5"/>
  <text x="1785" y="372" class="box-label-top">AWS Lambda</text>
  <text x="1785" y="390" class="note">Python 3.10 · 900s timeout</text>
  <text x="1785" y="406" class="note">VPC-attached</text>
  <text x="1785" y="422" class="note">env_decommission</text>
  <text x="1785" y="438" class="note">malware_quarantine</text>

  <!-- MongoDB Atlas -->
  <rect x="1680" y="480" width="210" height="110" rx="6" fill="#e1d5e7" stroke="#9673a6" stroke-width="2"/>
  <text x="1785" y="503" class="box-label-top">MongoDB Atlas</text>
  <text x="1785" y="522" class="note">M40 (4vCPU/8GB) × 3 nodes</text>
  <text x="1785" y="540" class="note">+ M30 analytics × 1</text>
  <text x="1785" y="558" class="note">v7.0 · PrivateLink</text>
  <text x="1785" y="576" class="note">auto-scale M40→M60</text>

  <!-- KMS -->
  <rect x="1680" y="610" width="210" height="90" rx="6" fill="#fce4ec" stroke="#c62828" stroke-width="1.5"/>
  <text x="1785" y="632" class="box-label-top">AWS KMS (5+ CMKs)</text>
  <text x="1785" y="650" class="note">EBS · SQS · SNS · S3</text>
  <text x="1785" y="666" class="note">usage-events · key rotation</text>
  <text x="1785" y="683" class="note">IRSA per service account</text>

  <!-- GuardDuty -->
  <rect x="1680" y="720" width="210" height="85" rx="6" fill="#fce4ec" stroke="#c62828" stroke-width="1.5"/>
  <text x="1785" y="742" class="box-label-top">AWS GuardDuty</text>
  <text x="1785" y="760" class="note">S3 Malware Protection</text>
  <text x="1785" y="778" class="note">→ EventBridge</text>
  <text x="1785" y="794" class="note">→ Lambda quarantine</text>

  <!-- Datadog SaaS -->
  <rect x="1680" y="825" width="210" height="90" rx="6" fill="#e1d5e7" stroke="#9673a6" stroke-width="2"/>
  <text x="1785" y="847" class="box-label-top">Datadog SaaS</text>
  <text x="1785" y="865" class="note">APM · Metrics · Logs</text>
  <text x="1785" y="881" class="note">SLO Monitors</text>
  <text x="1785" y="897" class="note">JVM · Network reachability</text>

  <!-- CloudWatch -->
  <rect x="1680" y="935" width="210" height="80" rx="6" fill="#fff9c4" stroke="#f9a825" stroke-width="1.5"/>
  <text x="1785" y="957" class="box-label-top">AWS CloudWatch</text>
  <text x="1785" y="975" class="note">EKS control plane logs</text>
  <text x="1785" y="991" class="note">WAF logs · Lambda logs · 14d</text>

  <!-- Rancher -->
  <rect x="1680" y="1035" width="210" height="70" rx="6" fill="#fff9c4" stroke="#f9a825" stroke-width="1.5"/>
  <text x="1785" y="1058" class="box-label-top">Rancher</text>
  <text x="1785" y="1076" class="note">rancher.us.tools.hyland.dev</text>
  <text x="1785" y="1092" class="note">OKTA RBAC groups</text>

  <!-- ── Arrows ── -->
  <!-- Internet → Route53 -->
  <line x1="900" y1="105" x2="700" y2="130" stroke="#0066cc" stroke-width="2" stroke-dasharray="4,2" marker-end="url(#arrow-blue)" filter="url(#glow-blue)"/>
  <!-- Internet → WAF -->
  <line x1="960" y1="105" x2="820" y2="205" stroke="#0066cc" stroke-width="2.5" marker-end="url(#arrow-blue)" filter="url(#glow-blue)"/>
  <!-- WAF → ALB -->
  <line x1="760" y1="257" x2="280" y2="348" stroke="#0066cc" stroke-width="2.5" marker-end="url(#arrow-blue)" filter="url(#glow-blue)"/>
  <!-- ALB → NGINX -->
  <line x1="295" y1="428" x2="505" y2="422" stroke="#0066cc" stroke-width="2.5" marker-end="url(#arrow-blue)" filter="url(#glow-blue)"/>
  <!-- NGINX → Pods -->
  <line x1="715" y1="420" x2="758" y2="435" stroke="#0066cc" stroke-width="2" marker-end="url(#arrow-blue)"/>
  <line x1="715" y1="430" x2="975" y2="445" stroke="#0066cc" stroke-width="2" marker-end="url(#arrow-blue)"/>
  <line x1="715" y1="440" x2="1192" y2="445" stroke="#0066cc" stroke-width="2" marker-end="url(#arrow-blue)"/>

  <!-- Pods → SQS (messaging) -->
  <path d="M858,480 C858,1050 250,1050 250,1080" fill="none" stroke="#ff6600" stroke-width="2" stroke-dasharray="6,3" marker-end="url(#arrow-orange)"/>
  <!-- Pods → SNS -->
  <path d="M1075,480 C1075,900 625,900 625,1080" fill="none" stroke="#ff6600" stroke-width="2" stroke-dasharray="6,3" marker-end="url(#arrow-orange)"/>
  <!-- SNS → SQS fan-out -->
  <line x1="465" y1="1150" x2="440" y2="1150" stroke="#ff6600" stroke-width="1.5" stroke-dasharray="4,2" marker-end="url(#arrow-orange)"/>

  <!-- Pods → OpenSearch -->
  <path d="M1292,480 C1292,900 1445,900 1445,1080" fill="none" stroke="#009900" stroke-width="2" stroke-dasharray="6,3" marker-end="url(#arrow-green)"/>
  <!-- Pods → Atlas (PrivateLink) -->
  <path d="M1504,480 C1600,480 1680,535 1680,535" fill="none" stroke="#9900cc" stroke-width="2.5" stroke-dasharray="6,3" marker-end="url(#arrow-purple)"/>
  <!-- Pods → S3 -->
  <path d="M1075,480 C1075,950 1020,950 1020,1080" fill="none" stroke="#ff9900" stroke-width="2" stroke-dasharray="6,3" marker-end="url(#arrow-orange)"/>

  <!-- Datadog Agent → Datadog SaaS -->
  <line x1="715" y1="647" x2="1680" y2="870" stroke="#9673a6" stroke-width="2" stroke-dasharray="5,3" marker-end="url(#arrow-purple)"/>
  <!-- Velero → S3 -->
  <path d="M700" y1="717" x2="1020" y2="1080" fill="none" stroke="#aa6600" stroke-width="1.5" stroke-dasharray="4,2" marker-end="url(#arrow-orange)"/>
  <line x1="610" y1="745" x2="960" y2="1080" stroke="#aa6600" stroke-width="1.5" stroke-dasharray="4,2" marker-end="url(#arrow-orange)"/>

  <!-- GuardDuty → Lambda -->
  <line x1="1785" y1="720" x2="1785" y2="460" stroke="#cc0000" stroke-width="2.5" marker-end="url(#arrow-red)"/>
  <!-- cert-manager → Route53 -->
  <path d="M610,550 C610,200 640,200 640,182" fill="none" stroke="#b85450" stroke-width="1.5" stroke-dasharray="4,2" marker-end="url(#arrow-red)"/>

  <!-- Legend -->
  <rect x="40" y="1250" width="1150" height="220" rx="6" fill="#fff" stroke="#ccc" stroke-width="1"/>
  <text x="60" y="1278" class="section-label">Legend</text>
  <line x1="70" y1="1300" x2="130" y2="1300" stroke="#0066cc" stroke-width="2.5" marker-end="url(#arrow-blue)"/>
  <text x="140" y="1304" class="box-label text-anchor:start">Request flow (Clients → ALB → NGINX → Pods)</text>
  <line x1="70" y1="1330" x2="130" y2="1330" stroke="#ff6600" stroke-width="2" stroke-dasharray="6,3" marker-end="url(#arrow-orange)"/>
  <text x="140" y="1334" class="box-label text-anchor:start">Messaging flow (Pods → SQS/SNS)</text>
  <line x1="70" y1="1360" x2="130" y2="1360" stroke="#009900" stroke-width="2" stroke-dasharray="6,3" marker-end="url(#arrow-green)"/>
  <text x="140" y="1364" class="box-label text-anchor:start">Search flow (Pods → OpenSearch)</text>
  <line x1="70" y1="1390" x2="130" y2="1390" stroke="#9900cc" stroke-width="2.5" stroke-dasharray="6,3" marker-end="url(#arrow-purple)"/>
  <text x="140" y="1394" class="box-label text-anchor:start">Database flow (Pods → MongoDB Atlas via PrivateLink)</text>
  <line x1="70" y1="1420" x2="130" y2="1420" stroke="#cc0000" stroke-width="2.5" marker-end="url(#arrow-red)"/>
  <text x="140" y="1424" class="box-label text-anchor:start">Security flow (GuardDuty → Lambda quarantine)</text>
  <line x1="460" y1="1300" x2="520" y2="1300" stroke="#9673a6" stroke-width="2" stroke-dasharray="5,3" marker-end="url(#arrow-purple)"/>
  <text x="530" y="1304" class="box-label text-anchor:start">Observability flow (Pods → Datadog Agent → Datadog SaaS)</text>
  <rect x="460" y="1320" width="50" height="20" rx="3" fill="#f5f5f5" stroke="#bbb" stroke-dasharray="3,2"/>
  <text x="530" y="1334" class="box-label text-anchor:start">Dashed border = Not found in IaC (KEDA, Network Policies)</text>
</svg>
