<svg xmlns="http://www.w3.org/2000/svg" width="1600" height="980" viewBox="0 0 1600 980"><defs><style>.bg{fill:#0f172a}.t{font:700 28px Segoe UI,Arial,sans-serif;fill:#f8fafc}.l{font:600 15px Segoe UI,Arial,sans-serif;fill:#f8fafc}.s{font:500 12px Segoe UI,Arial,sans-serif;fill:#e2e8f0}.box{stroke-width:2;rx:10;ry:10}.a{stroke:#22d3ee;stroke-width:4;fill:none;marker-end:url(#a)}.b{stroke:#f59e0b;stroke-width:4;fill:none;marker-end:url(#b)}.c{stroke:#ef4444;stroke-width:4;fill:none;marker-end:url(#c)}.d{stroke:#a78bfa;stroke-width:4;fill:none;marker-end:url(#d)}</style><marker id="a" markerWidth="12" markerHeight="12" refX="10" refY="6" orient="auto"><path d="M0,0 L12,6 L0,12 z" fill="#22d3ee"/></marker><marker id="b" markerWidth="12" markerHeight="12" refX="10" refY="6" orient="auto"><path d="M0,0 L12,6 L0,12 z" fill="#f59e0b"/></marker><marker id="c" markerWidth="12" markerHeight="12" refX="10" refY="6" orient="auto"><path d="M0,0 L12,6 L0,12 z" fill="#ef4444"/></marker><marker id="d" markerWidth="12" markerHeight="12" refX="10" refY="6" orient="auto"><path d="M0,0 L12,6 L0,12 z" fill="#a78bfa"/></marker></defs><rect class="bg" x="0" y="0" width="1600" height="980"/><text class="t" x="28" y="44">AWS Source Architecture</text><rect class="box" x="30" y="76" width="170" height="62" fill="#1d4ed8" stroke="#93c5fd"/><text class="l" x="45" y="113">Clients/Upstream</text><rect class="box" x="230" y="76" width="190" height="62" fill="#7c2d12" stroke="#fdba74"/><text class="l" x="250" y="113">DNS/Domain</text><rect class="box" x="450" y="76" width="190" height="62" fill="#7f1d1d" stroke="#fca5a5"/><text class="l" x="480" y="113">Ingress ALB/WAF</text><rect class="box" x="160" y="160" width="1260" height="760" fill="#111827" stroke="#64748b"/><text class="l" x="180" y="192">VPC/Subnets</text><rect class="box" x="200" y="220" width="760" height="420" fill="#14532d" stroke="#86efac"/><text class="l" x="220" y="250">EKS Cluster Boundary</text><rect class="box" x="230" y="275" width="130" height="54" fill="#1b5e20" stroke="#86efac"/><text class="l" x="258" y="308">REST pod</text><rect class="box" x="380" y="275" width="130" height="54" fill="#1b5e20" stroke="#86efac"/><text class="l" x="400" y="308">Router pod</text><rect class="box" x="230" y="348" width="500" height="92" fill="#1b5e20" stroke="#86efac"/><text class="s" x="246" y="380">Engine group: tika, imagemagick, libreoffice, misc,</text><text class="s" x="246" y="400">docfilters, docmerge, aio</text><rect class="box" x="750" y="275" width="110" height="54" fill="#1b5e20" stroke="#86efac"/><text class="l" x="780" y="308">KEDA</text><rect class="box" x="750" y="348" width="170" height="54" fill="#1b5e20" stroke="#86efac"/><text class="l" x="768" y="381">Network Policies</text><rect class="box" x="750" y="421" width="180" height="54" fill="#1b5e20" stroke="#86efac"/><text class="l" x="770" y="454">Kubernetes Secrets</text><rect class="box" x="1030" y="260" width="120" height="54" fill="#7c2d12" stroke="#fdba74"/><text class="l" x="1068" y="293">SNS</text><rect class="box" x="1170" y="260" width="120" height="54" fill="#7c2d12" stroke="#fdba74"/><text class="l" x="1208" y="293">SQS</text><rect class="box" x="1030" y="334" width="120" height="54" fill="#7f1d1d" stroke="#fca5a5"/><text class="l" x="1068" y="367">KMS</text><rect class="box" x="1170" y="334" width="170" height="54" fill="#7f1d1d" stroke="#fca5a5"/><text class="l" x="1190" y="367">Secrets Manager</text><rect class="box" x="1030" y="408" width="130" height="54" fill="#1d4ed8" stroke="#93c5fd"/><text class="l" x="1060" y="441">Datadog</text><rect class="box" x="1030" y="482" width="320" height="54" fill="#374151" stroke="#d1d5db"/><text class="s" x="1048" y="514">Not found in IaC: Explicit API gateway</text><path class="a" d="M200 107 L230 107"/><path class="a" d="M420 107 L450 107"/><path class="a" d="M640 107 L295 275"/><path class="b" d="M1090 314 L1090 334"/><path class="b" d="M1150 287 L1170 287"/><path class="b" d="M1170 287 L860 287"/><path class="c" d="M930 448 L1170 361"/><path class="c" d="M730 382 L1030 361"/><path class="d" d="M295 329 L1095 408"/><text class="s" x="30" y="958">Flows include request path, messaging fanout, KEDA scaling signals, secret/KMS dependencies, and observability export.</text></svg>