<svg xmlns="http://www.w3.org/2000/svg" width="1600" height="980" viewBox="0 0 1600 980"><defs><style>.bg{fill:#0b1020}.t{font:700 28px Segoe UI,Arial,sans-serif;fill:#f8fafc}.l{font:600 15px Segoe UI,Arial,sans-serif;fill:#f8fafc}.s{font:500 12px Segoe UI,Arial,sans-serif;fill:#e2e8f0}.box{stroke-width:2;rx:10;ry:10}.a{stroke:#22d3ee;stroke-width:4;fill:none;marker-end:url(#a)}.b{stroke:#f59e0b;stroke-width:4;fill:none;marker-end:url(#b)}.c{stroke:#ef4444;stroke-width:4;fill:none;marker-end:url(#c)}.d{stroke:#a78bfa;stroke-width:4;fill:none;marker-end:url(#d)}</style><marker id="a" markerWidth="12" markerHeight="12" refX="10" refY="6" orient="auto"><path d="M0,0 L12,6 L0,12 z" fill="#22d3ee"/></marker><marker id="b" markerWidth="12" markerHeight="12" refX="10" refY="6" orient="auto"><path d="M0,0 L12,6 L0,12 z" fill="#f59e0b"/></marker><marker id="c" markerWidth="12" markerHeight="12" refX="10" refY="6" orient="auto"><path d="M0,0 L12,6 L0,12 z" fill="#ef4444"/></marker><marker id="d" markerWidth="12" markerHeight="12" refX="10" refY="6" orient="auto"><path d="M0,0 L12,6 L0,12 z" fill="#a78bfa"/></marker></defs><rect class="bg" x="0" y="0" width="1600" height="980"/><text class="t" x="28" y="44">GCP Target Architecture</text><rect class="box" x="30" y="76" width="170" height="62" fill="#1d4ed8" stroke="#93c5fd"/><text class="l" x="45" y="113">Clients/Upstream</text><rect class="box" x="230" y="76" width="250" height="62" fill="#7c2d12" stroke="#fdba74"/><text class="l" x="248" y="113">Cloud DNS + LB + Armor</text><rect class="box" x="510" y="76" width="210" height="62" fill="#7f1d1d" stroke="#fca5a5"/><text class="l" x="540" y="113">Ingress Gateway</text><rect class="box" x="160" y="160" width="1260" height="760" fill="#111827" stroke="#64748b"/><text class="l" x="180" y="192">VPC/Subnets</text><rect class="box" x="200" y="220" width="760" height="420" fill="#14532d" stroke="#86efac"/><text class="l" x="220" y="250">GKE Cluster Boundary</text><rect class="box" x="230" y="275" width="130" height="54" fill="#1b5e20" stroke="#86efac"/><text class="l" x="258" y="308">REST pod</text><rect class="box" x="380" y="275" width="130" height="54" fill="#1b5e20" stroke="#86efac"/><text class="l" x="400" y="308">Router pod</text><rect class="box" x="230" y="348" width="430" height="92" fill="#1b5e20" stroke="#86efac"/><text class="s" x="246" y="390">Engine group containers (equivalent)</text><rect class="box" x="700" y="275" width="110" height="54" fill="#1b5e20" stroke="#86efac"/><text class="l" x="730" y="308">KEDA</text><rect class="box" x="700" y="348" width="170" height="54" fill="#1b5e20" stroke="#86efac"/><text class="l" x="718" y="381">Network Policies</text><rect class="box" x="700" y="421" width="170" height="54" fill="#1b5e20" stroke="#86efac"/><text class="l" x="725" y="454">K8s Secrets</text><rect class="box" x="1030" y="260" width="150" height="54" fill="#7c2d12" stroke="#fdba74"/><text class="l" x="1068" y="293">Pub/Sub</text><rect class="box" x="1200" y="260" width="180" height="54" fill="#7c2d12" stroke="#fdba74"/><text class="l" x="1220" y="293">Eventarc/Scheduler</text><rect class="box" x="1030" y="334" width="220" height="54" fill="#7f1d1d" stroke="#fca5a5"/><text class="l" x="1050" y="367">Cloud KMS + Secret Manager</text><rect class="box" x="1270" y="334" width="170" height="54" fill="#7f1d1d" stroke="#fca5a5"/><text class="l" x="1288" y="367">Workload Identity</text><rect class="box" x="1030" y="408" width="210" height="54" fill="#1d4ed8" stroke="#93c5fd"/><text class="l" x="1060" y="441">GCS + Backup + DR</text><rect class="box" x="1260" y="408" width="220" height="54" fill="#1d4ed8" stroke="#93c5fd"/><text class="l" x="1280" y="441">Monitoring + Datadog</text><rect class="box" x="1030" y="482" width="300" height="54" fill="#374151" stroke="#d1d5db"/><text class="s" x="1048" y="514">Mongo target: Firestore or Atlas</text><rect class="box" x="1030" y="556" width="330" height="54" fill="#374151" stroke="#d1d5db"/><text class="s" x="1048" y="588">Search target: Elastic or self-managed</text><path class="a" d="M200 107 L230 107"/><path class="a" d="M480 107 L510 107"/><path class="a" d="M720 107 L295 275"/><path class="b" d="M1180 287 L1200 287"/><path class="b" d="M1200 287 L810 287"/><path class="c" d="M870 448 L1030 361"/><path class="d" d="M295 329 L1370 408"/><text class="s" x="30" y="958">Equivalent detail includes cluster boundary, ingress, messaging, identity/security, storage/backup, observability, and service flows.</text></svg>