<?xml version="1.0" encoding="UTF-8"?>
<svg xmlns="http://www.w3.org/2000/svg" width="1200" height="700" viewBox="0 0 1200 700" role="img" aria-label="Regional cost comparison chart Azure vs GCP">
  <defs>
    <style>
      .bg { fill: #0d1426; }
      .txt { font-family: 'IBM Plex Sans', 'Segoe UI', sans-serif; fill: #f4fbff; paint-order: stroke; stroke: #09101c; stroke-width: 1px; }
      .title { font-size: 22px; font-weight: 700; }
      .axis { stroke: #9ed8ff; stroke-width: 2; }
      .grid { stroke: #26405f; stroke-width: 1; }
      .azure { fill: #33c3ff; }
      .gcp { fill: #7dff9f; }
      .label { font-size: 13px; }
      .value { font-size: 12px; }
    </style>
  </defs>
  <rect class="bg" x="0" y="0" width="1200" height="700"/>
  <text class="txt title" x="34" y="42">Regional 30-Day Total Cost Comparison (USD)</text>
  <text class="txt" x="34" y="66">Directional estimate from section 5.2 totals: Azure vs GCP</text>

  <line class="axis" x1="120" y1="110" x2="120" y2="620"/>
  <line class="axis" x1="120" y1="620" x2="1120" y2="620"/>

  <line class="grid" x1="120" y1="535" x2="1120" y2="535"/>
  <line class="grid" x1="120" y1="450" x2="1120" y2="450"/>
  <line class="grid" x1="120" y1="365" x2="1120" y2="365"/>
  <line class="grid" x1="120" y1="280" x2="1120" y2="280"/>
  <line class="grid" x1="120" y1="195" x2="1120" y2="195"/>
  <line class="grid" x1="120" y1="110" x2="1120" y2="110"/>

  <text class="txt label" x="42" y="625">0</text>
  <text class="txt label" x="20" y="540">4k</text>
  <text class="txt label" x="20" y="455">8k</text>
  <text class="txt label" x="12" y="370">12k</text>
  <text class="txt label" x="12" y="285">16k</text>
  <text class="txt label" x="12" y="200">20k</text>

  <rect class="azure" x="240" y="258" width="90" height="362"/>
  <rect class="gcp" x="350" y="250" width="90" height="370"/>
  <text class="txt label" x="262" y="648">US</text>
  <text class="txt value" x="240" y="248">Azure 14,200</text>
  <text class="txt value" x="350" y="240">GCP 14,490</text>

  <rect class="azure" x="560" y="227" width="90" height="393"/>
  <rect class="gcp" x="670" y="218" width="90" height="402"/>
  <text class="txt label" x="582" y="648">EU</text>
  <text class="txt value" x="560" y="217">Azure 15,410</text>
  <text class="txt value" x="670" y="208">GCP 15,780</text>

  <rect class="azure" x="880" y="173" width="90" height="447"/>
  <rect class="gcp" x="990" y="163" width="90" height="457"/>
  <text class="txt label" x="902" y="648">AU</text>
  <text class="txt value" x="880" y="163">Azure 17,520</text>
  <text class="txt value" x="990" y="153">GCP 17,910</text>

  <rect x="830" y="36" width="18" height="18" class="azure"/><text class="txt label" x="854" y="50">Azure</text>
  <rect x="940" y="36" width="18" height="18" class="gcp"/><text class="txt label" x="964" y="50">GCP</text>
</svg>
