<svg xmlns="http://www.w3.org/2000/svg" viewBox="0 0 1600 1000" width="1600" height="1000">
  <defs>
    <style>
      text { font-family: 'Segoe UI', Arial, sans-serif; }
      .label { font-size: 11px; fill: #ffffff; font-weight: bold; }
      .label-sm { font-size: 9px; fill: #ffffff; }
      .caption { font-size: 10px; fill: #333333; }
    </style>
    <marker id="arr" markerWidth="10" markerHeight="7" refX="9" refY="3.5" orient="auto">
      <polygon points="0 0, 10 3.5, 0 7" fill="#34A853"/>
    </marker>
    <marker id="arr-g" markerWidth="10" markerHeight="7" refX="9" refY="3.5" orient="auto">
      <polygon points="0 0, 10 3.5, 0 7" fill="#00CC44"/>
    </marker>
    <marker id="arr-b" markerWidth="10" markerHeight="7" refX="9" refY="3.5" orient="auto">
      <polygon points="0 0, 10 3.5, 0 7" fill="#00AAFF"/>
    </marker>
    <marker id="arr-p" markerWidth="10" markerHeight="7" refX="9" refY="3.5" orient="auto">
      <polygon points="0 0, 10 3.5, 0 7" fill="#AA00FF"/>
    </marker>
  </defs>
  <rect width="1600" height="1000" fill="#f0fff4"/>

  <!-- Title -->
  <text x="800" y="32" font-size="18" font-weight="bold" text-anchor="middle" fill="#1a1a1a" font-family="Segoe UI, Arial, sans-serif">HxTS GCP Target Architecture — GKE 1.33 | us-central1 / europe-west1 | Scenario C (Risk-First)</text>

  <!-- VPC container -->
  <rect x="10" y="50" width="1580" height="930" rx="12" fill="#e8f5e9" stroke="#34A853" stroke-width="3"/>
  <text x="20" y="75" font-size="13" font-weight="bold" fill="#34A853" font-family="Arial">GCP VPC — 10.17.0.0/18  |  Private subnets (3 zones)  |  VPC Firewall rules + GKE NetworkPolicy (native)</text>

  <!-- External Clients -->
  <rect x="20" y="100" width="150" height="65" rx="8" fill="#1565C0" stroke="#0d47a1" stroke-width="2"/>
  <text x="95" y="127" class="label" text-anchor="middle">External Clients</text>
  <text x="95" y="143" class="label-sm" text-anchor="middle">HxPR / CIC</text>
  <text x="95" y="157" class="label-sm" text-anchor="middle">Browsers</text>

  <!-- Cloud DNS -->
  <rect x="200" y="90" width="200" height="50" rx="8" fill="#34A853" stroke="#1e7e34" stroke-width="2"/>
  <text x="300" y="111" class="label" text-anchor="middle">Cloud DNS</text>
  <text x="300" y="128" class="label-sm" text-anchor="middle">*.{env}.experience.hyland.com</text>
  <text x="300" y="138" class="label-sm" text-anchor="middle">A → Cloud LB IP</text>

  <!-- Cloud LB + Cloud Armor -->
  <rect x="430" y="84" width="250" height="85" rx="8" fill="#34A853" stroke="#1e7e34" stroke-width="2"/>
  <text x="555" y="108" class="label" text-anchor="middle">Cloud Load Balancer (L7)</text>
  <text x="555" y="125" class="label-sm" text-anchor="middle">Cloud Armor policy (CEL rules)</text>
  <text x="555" y="141" class="label-sm" text-anchor="middle">OWASP equiv + 2 custom CEL rules</text>
  <text x="555" y="157" class="label-sm" text-anchor="middle">Managed SSL cert | TLS 1.2+</text>
  <rect x="636" y="87" width="40" height="18" rx="4" fill="#d32f2f"/>
  <text x="656" y="100" font-size="9" text-anchor="middle" fill="#ffffff" font-family="Arial">Armor</text>

  <!-- Cloud KMS note -->
  <rect x="710" y="84" width="180" height="60" rx="8" fill="#e65100" stroke="#bf360c" stroke-width="2"/>
  <text x="800" y="107" class="label" text-anchor="middle">Cloud KMS</text>
  <text x="800" y="124" class="label-sm" text-anchor="middle">90-day rotation (verify SOC2)</text>
  <text x="800" y="138" class="label-sm" text-anchor="middle">TLS cert via Cert Manager</text>

  <!-- Native autoscaling note -->
  <rect x="935" y="84" width="215" height="65" rx="8" fill="#00897B" stroke="#004d40" stroke-width="2"/>
  <text x="1042" y="107" class="label" text-anchor="middle" font-size="12">✅ Native Autoscaling</text>
  <text x="1042" y="124" class="label-sm" text-anchor="middle">GKE Cluster Autoscaler (built-in)</text>
  <text x="1042" y="141" class="label-sm" text-anchor="middle">No Karpenter interim needed</text>
  <text x="1042" y="148" class="label-sm" text-anchor="middle">n1-standard-4 (≈m5.xlarge)</text>

  <!-- Private subnets -->
  <rect x="20" y="175" width="1550" height="760" rx="10" fill="#c8e6c9" stroke="#2e7d32" stroke-width="2"/>
  <text x="30" y="198" font-size="12" font-weight="bold" fill="#2e7d32" font-family="Arial">Private Subnets (3 Zones — us-central1-a/b/c or europe-west1-b/c/d)</text>

  <!-- GKE Cluster Box -->
  <rect x="30" y="210" width="1100" height="690" rx="10" fill="#e8f5e9" stroke="#1b5e20" stroke-width="3"/>
  <text x="580" y="234" font-size="13" font-weight="bold" text-anchor="middle" fill="#1b5e20" font-family="Arial">GKE Cluster — hxts-{env} | Kubernetes 1.33 | n1-standard-4 | min 3, max 25 | Native autoscaler | Container-Optimized OS</text>

  <!-- T-REST -->
  <rect x="50" y="255" width="130" height="75" rx="6" fill="#2e7d32" stroke="#1b5e20" stroke-width="2"/>
  <text x="115" y="278" class="label" text-anchor="middle">T-REST</text>
  <text x="115" y="295" class="label-sm" text-anchor="middle">:8080 HTTP</text>
  <text x="115" y="312" class="label-sm" text-anchor="middle">Pub/Sub subscribe</text>
  <text x="115" y="328" class="label-sm" text-anchor="middle">Filestore NFS</text>

  <!-- T-Router -->
  <rect x="200" y="255" width="130" height="75" rx="6" fill="#2e7d32" stroke="#1b5e20" stroke-width="2"/>
  <text x="265" y="278" class="label" text-anchor="middle">T-Router</text>
  <text x="265" y="295" class="label-sm" text-anchor="middle">Pub/Sub fanout</text>
  <text x="265" y="312" class="label-sm" text-anchor="middle">WI auth</text>

  <!-- T-Engines -->
  <rect x="350" y="245" width="740" height="100" rx="8" fill="#a5d6a7" stroke="#2e7d32" stroke-width="2"/>
  <text x="720" y="268" font-size="11" font-weight="bold" text-anchor="middle" fill="#1b5e20" font-family="Arial">T-Engines (9 pods — unchanged Kubernetes spec)</text>
  <rect x="362" y="278" width="80" height="48" rx="4" fill="#2e7d32" stroke="#1b5e20"/>
  <text x="402" y="298" class="label-sm" text-anchor="middle">Tika</text>
  <rect x="452" y="278" width="80" height="48" rx="4" fill="#2e7d32" stroke="#1b5e20"/>
  <text x="492" y="298" class="label-sm" text-anchor="middle">ImageMagick</text>
  <rect x="542" y="278" width="80" height="48" rx="4" fill="#2e7d32" stroke="#1b5e20"/>
  <text x="582" y="298" class="label-sm" text-anchor="middle">LibreOffice</text>
  <rect x="632" y="278" width="80" height="48" rx="4" fill="#2e7d32" stroke="#1b5e20"/>
  <text x="672" y="298" class="label-sm" text-anchor="middle">DocFilters</text>
  <rect x="722" y="278" width="80" height="48" rx="4" fill="#2e7d32" stroke="#1b5e20"/>
  <text x="762" y="298" class="label-sm" text-anchor="middle">DocMerge</text>
  <rect x="812" y="278" width="70" height="48" rx="4" fill="#2e7d32" stroke="#1b5e20"/>
  <text x="847" y="298" class="label-sm" text-anchor="middle">Misc</text>
  <rect x="892" y="278" width="70" height="48" rx="4" fill="#2e7d32" stroke="#1b5e20"/>
  <text x="927" y="298" class="label-sm" text-anchor="middle">AIO (opt)</text>

  <!-- KEDA -->
  <rect x="50" y="380" width="165" height="75" rx="8" fill="#4a148c" stroke="#311b92" stroke-width="2"/>
  <text x="132" y="403" class="label" text-anchor="middle">KEDA 2.17.2</text>
  <text x="132" y="420" class="label-sm" text-anchor="middle">Pub/Sub trigger</text>
  <text x="132" y="437" class="label-sm" text-anchor="middle">Workload Identity</text>
  <text x="132" y="454" class="label-sm" text-anchor="middle">min 2-5 | max 50-150</text>

  <!-- Datadog -->
  <rect x="230" y="380" width="165" height="75" rx="8" fill="#6a0dad" stroke="#4a148c" stroke-width="2"/>
  <text x="312" y="403" class="label" text-anchor="middle">Datadog 3.146.1</text>
  <text x="312" y="420" class="label-sm" text-anchor="middle">DaemonSet (same)</text>
  <text x="312" y="437" class="label-sm" text-anchor="middle">datadoghq.eu endpoint</text>
  <text x="312" y="454" class="label-sm" text-anchor="middle">Java Agent v1.60.1</text>

  <!-- Workload Identity -->
  <rect x="410" y="380" width="175" height="75" rx="8" fill="#880e4f" stroke="#560027" stroke-width="2"/>
  <text x="497" y="403" class="label" text-anchor="middle">Workload Identity</text>
  <text x="497" y="420" class="label-sm" text-anchor="middle">GCP IAM roles</text>
  <text x="497" y="437" class="label-sm" text-anchor="middle">SA impersonation</text>
  <text x="497" y="454" class="label-sm" text-anchor="middle">No external IdP needed</text>

  <!-- GKE Network Policies -->
  <rect x="600" y="380" width="175" height="75" rx="8" fill="#4e342e" stroke="#3e2723" stroke-width="2"/>
  <text x="687" y="403" class="label" text-anchor="middle">GKE NetworkPolicy</text>
  <text x="687" y="420" class="label-sm" text-anchor="middle">Native (no Calico needed)</text>
  <text x="687" y="437" class="label-sm" text-anchor="middle">VPC Firewall rules</text>
  <text x="687" y="454" class="label-sm" text-anchor="middle">egress-only default</text>

  <!-- Cloud Filestore NFS -->
  <rect x="790" y="380" width="175" height="75" rx="8" fill="#4e342e" stroke="#3e2723" stroke-width="2"/>
  <text x="877" y="403" class="label" text-anchor="middle">Cloud Filestore (NFS)</text>
  <text x="877" y="420" class="label-sm" text-anchor="middle">Basic HDD tier, 50Gi</text>
  <text x="877" y="437" class="label-sm" text-anchor="middle">Shared File Store (SFS)</text>
  <text x="877" y="454" class="label-sm" text-anchor="middle">NFSv3 (note: no v4.1)</text>
  <rect x="962" y="383" width="40" height="16" rx="3" fill="#f44336"/>
  <text x="982" y="395" font-size="8" text-anchor="middle" fill="#ffffff" font-family="Arial">NEW</text>

  <!-- AR -->
  <rect x="980" y="380" width="120" height="75" rx="8" fill="#546e7a" stroke="#263238" stroke-width="2"/>
  <text x="1040" y="403" class="label" text-anchor="middle">Artifact Registry</text>
  <text x="1040" y="420" class="label-sm" text-anchor="middle">9 images</text>
  <text x="1040" y="437" class="label-sm" text-anchor="middle">Regional repl.</text>
  <text x="1040" y="454" class="label-sm" text-anchor="middle">WI pull auth</text>

  <!-- Addons row -->
  <rect x="50" y="480" width="1060" height="55" rx="8" fill="#37474f" stroke="#263238" stroke-width="1"/>
  <text x="580" y="500" class="label" text-anchor="middle">GKE Addons: VPC-native networking | GKE ingress | Cloud DNS controller | Config Connector | cert-manager | external-dns</text>
  <text x="580" y="526" class="label-sm" text-anchor="middle">Velero 11.4.0 (GCS plugin) | Datadog Operator | KEDA | Binary Authorization | Workload Identity webhook</text>

  <!-- Datadog monitors row -->
  <rect x="50" y="550" width="1060" height="50" rx="8" fill="#1a237e" stroke="#0d47a1" stroke-width="1"/>
  <text x="580" y="573" class="label" text-anchor="middle">Datadog Monitors — same 5 infra monitors | Teams + PagerDuty (P1/P2 prod) — cloud-agnostic, no changes needed</text>
  <text x="580" y="591" class="label-sm" text-anchor="middle">Note: GCP Cloud Monitoring can supplement for GKE node metrics</text>

  <!-- Right column: GCP services -->
  <!-- Pub/Sub -->
  <rect x="1165" y="210" width="225" height="130" rx="8" fill="#34A853" stroke="#1e7e34" stroke-width="2"/>
  <text x="1277" y="235" class="label" text-anchor="middle" font-size="12">Cloud Pub/Sub</text>
  <text x="1277" y="253" class="label-sm" text-anchor="middle">~28 subscriptions (1:1 from SQS)</text>
  <text x="1277" y="270" class="label-sm" text-anchor="middle">2 Topics: transform-request/reply</text>
  <text x="1277" y="287" class="label-sm" text-anchor="middle">IAM-based cross-project auth</text>
  <text x="1277" y="304" class="label-sm" text-anchor="middle">At-least-once delivery (like SQS)</text>
  <text x="1277" y="321" class="label-sm" text-anchor="middle">⚠ No visibility timeout equiv.</text>
  <text x="1277" y="335" class="label-sm" text-anchor="middle">Pub/Sub API refactor required</text>

  <!-- Cloud KMS + Secret Manager -->
  <rect x="1165" y="360" width="225" height="100" rx="8" fill="#b71c1c" stroke="#7f0000" stroke-width="2"/>
  <text x="1277" y="385" class="label" text-anchor="middle" font-size="12">Cloud KMS + Secret Manager</text>
  <text x="1277" y="403" class="label-sm" text-anchor="middle">90-day rotation default</text>
  <text x="1277" y="420" class="label-sm" text-anchor="middle">Verify SOC2 rotation cadence</text>
  <text x="1277" y="437" class="label-sm" text-anchor="middle">Secrets: idp_client_secret</text>
  <text x="1277" y="454" class="label-sm" text-anchor="middle">Workload Identity access</text>

  <!-- Velero + GCS -->
  <rect x="1165" y="480" width="225" height="100" rx="8" fill="#2e7d32" stroke="#1b5e20" stroke-width="2"/>
  <text x="1277" y="505" class="label" text-anchor="middle" font-size="12">Velero 11.4.0</text>
  <text x="1277" y="523" class="label-sm" text-anchor="middle">GCS plugin (dual-region bucket)</text>
  <text x="1277" y="540" class="label-sm" text-anchor="middle">US: nam4 (us-central+us-east)</text>
  <text x="1277" y="557" class="label-sm" text-anchor="middle">EU: eur4 (eur-west+eur-north)</text>
  <text x="1277" y="574" class="label-sm" text-anchor="middle">Schedule 30m | RTO 4h | RPO 30m</text>

  <!-- Pub/Sub refactor callout -->
  <rect x="1165" y="600" width="225" height="80" rx="8" fill="#e65100" stroke="#bf360c" stroke-width="2"/>
  <text x="1277" y="623" class="label" text-anchor="middle" font-size="12">⚠ Pub/Sub Refactor</text>
  <text x="1277" y="641" class="label-sm" text-anchor="middle">SQS→Pub/Sub API change</text>
  <text x="1277" y="658" class="label-sm" text-anchor="middle">visibility_timeout → ack deadline</text>
  <text x="1277" y="675" class="label-sm" text-anchor="middle">L effort | M risk</text>

  <!-- Arrows -->
  <line x1="170" y1="132" x2="430" y2="128" stroke="#34A853" stroke-width="3" marker-end="url(#arr)"/>
  <line x1="680" y1="128" x2="710" y2="128" stroke="#34A853" stroke-width="2" marker-end="url(#arr)"/>
  <line x1="555" y1="169" x2="115" y2="255" stroke="#34A853" stroke-width="2" marker-end="url(#arr)"/>
  <line x1="115" y1="330" x2="265" y2="330" stroke="#00AAFF" stroke-width="2" marker-end="url(#arr-b)"/>
  <line x1="265" y1="330" x2="1165" y2="280" stroke="#00CC44" stroke-width="2" marker-end="url(#arr-g)"/>
  <line x1="1165" y1="300" x2="1090" y2="330" stroke="#00CC44" stroke-width="2" marker-end="url(#arr-g)"/>
  <line x1="132" y1="380" x2="132" y2="345" stroke="#AA00FF" stroke-width="2" stroke-dasharray="5,4" marker-end="url(#arr-p)"/>

  <!-- Legend -->
  <rect x="20" y="960" width="1560" height="30" rx="4" fill="#263238"/>
  <text x="30" y="980" font-size="10" fill="#34A853" font-weight="bold" font-family="Arial">── Request flow</text>
  <text x="170" y="980" font-size="10" fill="#00CC44" font-weight="bold" font-family="Arial">── Messaging (Pub/Sub)</text>
  <text x="380" y="980" font-size="10" fill="#AA00FF" font-weight="bold" font-family="Arial">- - Scaling signal (KEDA)</text>
  <text x="580" y="980" font-size="10" fill="#00897B" font-weight="bold" font-family="Arial">✅ Native autoscaler (no interim)</text>
  <text x="840" y="980" font-size="10" fill="#f44336" font-weight="bold" font-family="Arial">NEW = Migration delta | ⚠ = Risk item</text>
  <text x="1200" y="980" font-size="10" fill="#aaaaaa" font-family="Arial">Scenario C — Risk-First | Directional estimate</text>
</svg>
